<?xml version="1.0" encoding="UTF-8" standalone="no"?>
<!-- Created with Inkscape (http://www.inkscape.org/) -->
<svg id="svg3482" xmlns:rdf="http://www.w3.org/1999/02/22-rdf-syntax-ns#" xmlns="http://www.w3.org/2000/svg" height="1467.5" viewBox="0 0 937.5 1467.5" width="937.5" version="1.1" xmlns:cc="http://creativecommons.org/ns#" xmlns:xlink="http://www.w3.org/1999/xlink" xmlns:dc="http://purl.org/dc/elements/1.1/">
<style type="text/css">
.tooltip{
	opacity:0;
  	 -webkit-transition: all 1s ease-in-out;
	  -moz-transition: all 1s ease-in-out;
	  -o-transition: all 1s ease-in-out;
	  transition: all 1s ease-in-out;
	  
}
.mousehover path{
opacity:0;
cursor:pointer;
}
.mousehover:hover .tooltip{
opacity:9;
}
.mousehover:hover path{
opacity:.3;
}
</style>
 <g fill="none">
 	 <image id="image3490" style="image-rendering:optimizeQuality" height="1467.5" width="937.5" y="-3.8864" x="6.9955"  xlink:href="image1.jpg" preserveAspectRatio="none" />

 </g>
 <g class="mousehover">
   <path id="path12212" d="m136.02 196.26s94.828 2.3318 100.27-0.38864c5.441-2.7205 4.6637-68.012 4.6637-68.012l-50.134-4.275 1.9432-71.898-8.1614-0.77728-1.5546 73.064-51.689 3.4977-0.38863 64.125z" stroke="#000" stroke-width="1px"/>
	<g class="tooltip">
		  <rect id="rect11885" opacity="0.77" height="46.332" width="108.29" y="64.769" x="65.247" fill="#a40"/>
		  <path id="path11986" d="m171 82.586 5.8296 3.4977-5.4409 4.6637z" fill-rule="evenodd" fill="#b76832"/>
		  <text id="text12032" style="word-spacing:0px;letter-spacing:0px" xml:space="preserve" font-size="13.75px" y="85.235374" x="67.38559" font-family="sans-serif" line-height="125%" fill="#000000"><tspan id="tspan12034" y="85.235374" x="67.38559">Mandala Lamp </tspan><tspan id="tspan12046" y="102.42287" x="67.38559"/></text>
		  <text id="text12032-3" style="word-spacing:0px;letter-spacing:0px" xml:space="preserve" font-size="13.75px" y="103.00983" x="69.261284" font-family="sans-serif" line-height="125%" fill="#000000"><tspan id="tspan12034-6" y="103.00983" x="69.261284" fill="#ffffff">Rs 1000</tspan><tspan id="tspan12046-2" y="120.19733" x="69.261284"/></text>

	 </g>

</g>
 <g class="mousehover">
  <path id="path12392" d="m195.66 712.87-25.282 7.145-43.969 4.9466-10.992-2.7481-62.107 17.038 8.2443 114.32 19.237 119.82 236.89 1.6488 24.733 1.0992 24.733-14.29 3.8473 14.84 12.092-2.1985-1.0992-23.084 6.5954-5.4962-1.0992-110.47-7.145-5.4962-124.21 3.2977 5.4318 26.428-19.821 2.3318-32.257 1.5546-8.9387-24.873-3.4978-38.475 43.139-13.991-11.271-17.1-6.6069-40.03s-3.4978-15.157-6.2182-17.1c-2.7205-1.9432-20.419 0.88795-20.419 0.88795z" fill-rule="evenodd"/>
  <g class="tooltip">
  	    	
  <rect id="rect11885-8-1" opacity="0.77" height="46.332" width="108.29" y="657.62" x="115.14" fill="#a40"/>
  <path id="path11986-1-0" d="m171.62 702.11-3.9119 5.5602-4.2562-5.7653z" fill-rule="evenodd" fill="#b76832"/>
  <text id="text12032-35-1" style="word-spacing:0px;letter-spacing:0px" xml:space="preserve" font-size="13.75px" y="678.08594" x="117.27802" font-family="sans-serif" line-height="125%" fill="#000000"><tspan id="tspan12034-2-4" y="678.08594" x="117.27802">Fabric Sofa</tspan><tspan id="tspan12046-5-0" y="695.27344" x="117.27802"/></text>
  <text id="text12032-3-1-0" style="word-spacing:0px;letter-spacing:0px" xml:space="preserve" font-size="13.75px" y="695.86041" x="119.15372" font-family="sans-serif" line-height="125%" fill="#000000"><tspan id="tspan12034-6-2-6" y="695.86041" x="119.15372" fill="#ffffff">Rs 20,000</tspan><tspan id="tspan12046-2-3-7" y="713.04791" x="119.15372"/></text>
  </g>	
</g>

 <g class="mousehover">
  <path id="path12394" d="m101.43 425.95-3.1091-72.675s1.1659-5.0523 5.4409-5.0523 124.36-2.7205 128.64-1.9432c4.275 0.77728 6.2182 10.882 6.2182 10.882l7.3841 64.903s55.964 8.5501 57.907 12.048c1.9432 3.4977-1.5546 37.698-1.5546 37.698l-210.63-0.79s-4.6637-35.366-1.1659-38.475c3.4977-3.1091 10.882-5.4409 10.882-5.4409z" fill-rule="evenodd"/>
  <g class="tooltip">
<rect id="rect11885-8" opacity="0.77" height="46.332" width="108.29" y="290.85" x="146.3" fill="#a40"/>
  <path id="path11986-1" d="m202.78 335.35-3.9119 5.5602-4.2562-5.7653z" fill-rule="evenodd" fill="#b76832"/>
  <text id="text12032-35" style="word-spacing:0px;letter-spacing:0px" xml:space="preserve" font-size="13.75px" y="311.3208" x="148.43915" font-family="sans-serif" line-height="125%" fill="#000000"><tspan id="tspan12034-2" y="311.3208" x="148.43915">Smooth Sofa</tspan><tspan id="tspan12046-5" y="328.5083" x="148.43915"/></text>
  <text id="text12032-3-1" style="word-spacing:0px;letter-spacing:0px" xml:space="preserve" font-size="13.75px" y="329.09525" x="150.31485" font-family="sans-serif" line-height="125%" fill="#000000"><tspan id="tspan12034-6-2" y="329.09525" x="150.31485" fill="#ffffff">Rs 20,000</tspan><tspan id="tspan12046-2-3" y="346.28275" x="150.31485"/></text>

  </g>	

</g>

</svg>
