<?xml version="1.0"?>
<!--Icons from directory ""-->
<svg xmlns="http://www.w3.org/2000/svg" width="20" height="640" viewBox="0 0 20 640"><svg xmlns:xlink="http://www.w3.org/1999/xlink" height="16" width="16" version="1.1" viewBox="0 0 16 16" id="address-book" y="0"><g fill="#444"><path d="m3 0v16h12v-16h-12zm6 4.005c1.102 0 1.995 0.893 1.995 1.995s-0.893 1.995-1.995 1.995-1.995-0.893-1.995-1.995 0.893-1.995 1.995-1.995zm3 7.995h-6v-1c0-1.105 0.895-2 2-2h2c1.105 0 2 0.895 2 2v1z"/><path d="m1 1h1.5v3h-1.5v-3z"/><path d="m1 5h1.5v3h-1.5v-3z"/><path d="m1 9h1.5v3h-1.5v-3z"/><path d="m1 13h1.5v3h-1.5v-3z"/></g></svg><svg xmlns:xlink="http://www.w3.org/1999/xlink" height="16" width="16" version="1.1" viewBox="0 0 16 16" id="calendar" y="16"><path d="m5 6h2v2h-2zm3 0h2v2h-2zm3 0h2v2h-2zm-9 6h2v2h-2zm3 0h2v2h-2zm3 0h2v2h-2zm-3-3h2v2h-2zm3 0h2v2h-2zm3 0h2v2h-2zm-9 0h2v2h-2zm11-9v1h-2v-1h-7v1h-2v-1h-2v16h15v-16h-2zm1 15h-13v-11h13v11z" fill="#444"/></svg><svg xmlns:xlink="http://www.w3.org/1999/xlink" height="16" width="16" version="1.1" viewBox="0 0 16 16" id="camera" y="32"><path d="m4.75 9.5c0 1.795 1.455 3.25 3.25 3.25s3.25-1.455 3.25-3.25-1.455-3.25-3.25-3.25-3.25 1.455-3.25 3.25zm10.25-5.5h-3.5c-0.25-1-0.5-2-1.5-2h-4c-1 0-1.25 1-1.5 2h-3.5c-0.55 0-1 0.45-1 1v9c0 0.55 0.45 1 1 1h14c0.55 0 1-0.45 1-1v-9c0-0.55-0.45-1-1-1zm-7 9.938c-2.451 0-4.438-1.987-4.438-4.438s1.987-4.438 4.438-4.438c2.451 0 4.438 1.987 4.438 4.438s-1.987 4.438-4.438 4.438zm7-6.938h-2v-1h2v1z" fill="#444"/></svg><svg xmlns:xlink="http://www.w3.org/1999/xlink" height="16" width="16" version="1.1" viewBox="0 0 16 16" id="circle-down" y="48"><path d="m16 8c0-4.418-3.582-8-8-8s-8 3.582-8 8 3.582 8 8 8 8-3.582 8-8zm-14.5 0c0-3.59 2.91-6.5 6.5-6.5s6.5 2.91 6.5 6.5-2.91 6.5-6.5 6.5-6.5-2.91-6.5-6.5z" fill="#444"/><path d="m4.957 5.543l-1.414 1.414 4.457 4.457 4.457-4.457-1.414-1.414-3.043 3.043z" fill="#444"/></svg><svg xmlns:xlink="http://www.w3.org/1999/xlink" height="16" width="16" version="1.1" viewBox="0 0 16 16" id="circle-left" y="64"><path d="m8 16c4.418 0 8-3.582 8-8s-3.582-8-8-8-8 3.582-8 8 3.582 8 8 8zm0-14.5c3.59 0 6.5 2.91 6.5 6.5s-2.91 6.5-6.5 6.5-6.5-2.91-6.5-6.5 2.91-6.5 6.5-6.5z" fill="#444"/><path d="m10.457 4.957l-1.414-1.414-4.457 4.457 4.457 4.457 1.414-1.414-3.043-3.043z" fill="#444"/></svg><svg xmlns:xlink="http://www.w3.org/1999/xlink" height="16" width="16" version="1.1" viewBox="0 0 16 16" id="circle-right" y="80"><path d="m8 0c-4.418 0-8 3.582-8 8s3.582 8 8 8 8-3.582 8-8-3.582-8-8-8zm0 14.5c-3.59 0-6.5-2.91-6.5-6.5s2.91-6.5 6.5-6.5 6.5 2.91 6.5 6.5-2.91 6.5-6.5 6.5z" fill="#444"/><path d="m5.543 11.043l1.414 1.414 4.457-4.457-4.457-4.457-1.414 1.414 3.043 3.043z" fill="#444"/></svg><svg xmlns:xlink="http://www.w3.org/1999/xlink" height="16" width="16" version="1.1" viewBox="0 0 16 16" id="circle-up" y="96"><path d="m0 8c0 4.418 3.582 8 8 8s8-3.582 8-8-3.582-8-8-8-8 3.582-8 8zm14.5 0c0 3.59-2.91 6.5-6.5 6.5s-6.5-2.91-6.5-6.5 2.91-6.5 6.5-6.5 6.5 2.91 6.5 6.5z" fill="#444"/><path d="m11.043 10.457l1.414-1.414-4.457-4.457-4.457 4.457 1.414 1.414 3.043-3.043z" fill="#444"/></svg><svg xmlns:xlink="http://www.w3.org/1999/xlink" height="16" width="16" version="1.1" viewBox="0 0 16 16" id="clock" y="112"><path d="m10.293 11.707l-3.293-3.293v-4.414h2v3.586l2.707 2.707zm-2.293-11.707c-4.418 0-8 3.582-8 8s3.582 8 8 8 8-3.582 8-8-3.582-8-8-8zm0 14c-3.314 0-6-2.686-6-6s2.686-6 6-6c3.314 0 6 2.686 6 6s-2.686 6-6 6z" fill="#444"/></svg><svg xmlns:xlink="http://www.w3.org/1999/xlink" height="16" width="16" version="1.1" viewBox="0 0 16 16" id="coin-dollar" y="128"><path d="m7.5 1c-4.142 0-7.5 3.358-7.5 7.5s3.358 7.5 7.5 7.5c4.142 0 7.5-3.358 7.5-7.5s-3.358-7.5-7.5-7.5zm0 13.5c-3.314 0-6-2.686-6-6s2.686-6 6-6c3.314 0 6 2.686 6 6s-2.686 6-6 6zm0.5-6.5v-2h2v-1h-2v-1h-1v1h-2v4h2v2h-2v1h2v1h1v-1h2v-4h-2zm-1 0h-1v-2h1v2zm2 3h-1v-2h1v2z" fill="#444"/></svg><svg xmlns:xlink="http://www.w3.org/1999/xlink" height="16" width="16" version="1.1" viewBox="0 0 16 16" id="coin-euro" y="144"><path d="m7.5 1c-4.142 0-7.5 3.358-7.5 7.5s3.358 7.5 7.5 7.5c4.142 0 7.5-3.358 7.5-7.5s-3.358-7.5-7.5-7.5zm0 13.5c-3.314 0-6-2.686-6-6s2.686-6 6-6c3.314 0 6 2.686 6 6s-2.686 6-6 6z" fill="#444"/><path d="m10.482 10.068c-0.239-0.139-0.545-0.058-0.684 0.181-0.27 0.463-0.767 0.751-1.298 0.751h-2c-0.652 0-1.208-0.418-1.414-1h2.414c0.276 0 0.5-0.224 0.5-0.5s-0.224-0.5-0.5-0.5h-2.5v-1h2.5c0.276 0 0.5-0.224 0.5-0.5s-0.224-0.5-0.5-0.5h-2.414c0.206-0.582 0.762-1 1.414-1h2c0.531 0 1.028 0.288 1.298 0.751 0.139 0.239 0.445 0.32 0.684 0.181s0.32-0.445 0.181-0.684c-0.448-0.77-1.277-1.249-2.162-1.249h-2c-1.207 0-2.217 0.86-2.45 2h-0.55c-0.276 0-0.5 0.224-0.5 0.5s0.224 0.5 0.5 0.5h0.5v1h-0.5c-0.276 0-0.5 0.224-0.5 0.5s0.224 0.5 0.5 0.5h0.55c0.232 1.14 1.242 2 2.45 2h2c0.886 0 1.714-0.478 2.162-1.249 0.139-0.239 0.058-0.545-0.181-0.684z" fill="#444"/></svg><svg xmlns:xlink="http://www.w3.org/1999/xlink" height="16" width="16" version="1.1" viewBox="0 0 16 16" id="coin-pound" y="160"><path d="m7.5 1c-4.142 0-7.5 3.358-7.5 7.5s3.358 7.5 7.5 7.5c4.142 0 7.5-3.358 7.5-7.5s-3.358-7.5-7.5-7.5zm0 13.5c-3.314 0-6-2.686-6-6s2.686-6 6-6c3.314 0 6 2.686 6 6s-2.686 6-6 6z" fill="#444"/><path d="m9.5 11h-3.5v-2h1.5c0.276 0 0.5-0.224 0.5-0.5s-0.224-0.5-0.5-0.5h-1.5v-0.5c0-0.827 0.673-1.5 1.5-1.5 0.534 0 1.032 0.288 1.3 0.75 0.138 0.239 0.444 0.321 0.683 0.182s0.321-0.444 0.182-0.683c-0.446-0.771-1.276-1.25-2.165-1.25-1.378 0-2.5 1.122-2.5 2.5v0.5h-0.5c-0.276 0-0.5 0.224-0.5 0.5s0.224 0.5 0.5 0.5h0.5v3h4.5c0.276 0 0.5-0.224 0.5-0.5s-0.224-0.5-0.5-0.5z" fill="#444"/></svg><svg xmlns:xlink="http://www.w3.org/1999/xlink" height="16" width="16" version="1.1" viewBox="0 0 16 16" id="coin-yen" y="176"><path d="m7.5 1c-4.142 0-7.5 3.358-7.5 7.5s3.358 7.5 7.5 7.5c4.142 0 7.5-3.358 7.5-7.5s-3.358-7.5-7.5-7.5zm0 13.5c-3.314 0-6-2.686-6-6s2.686-6 6-6c3.314 0 6 2.686 6 6s-2.686 6-6 6z" fill="#444"/><path d="m9.5 9c0.276 0 0.5-0.224 0.5-0.5s-0.224-0.5-0.5-0.5h-1.066l1.482-2.223c0.153-0.23 0.091-0.54-0.139-0.693s-0.54-0.091-0.693 0.139l-1.584 2.376-1.584-2.376c-0.153-0.23-0.464-0.292-0.693-0.139s-0.292 0.464-0.139 0.693l1.482 2.223h-1.066c-0.276 0-0.5 0.224-0.5 0.5s0.224 0.5 0.5 0.5h1.5v1h-1.5c-0.276 0-0.5 0.224-0.5 0.5s0.224 0.5 0.5 0.5h1.5v1.5c0 0.276 0.224 0.5 0.5 0.5s0.5-0.224 0.5-0.5v-1.5h1.5c0.276 0 0.5-0.224 0.5-0.5s-0.224-0.5-0.5-0.5h-1.5v-1h1.5z" fill="#444"/></svg><svg xmlns:xlink="http://www.w3.org/1999/xlink" height="16" width="16" version="1.1" viewBox="0 0 16 16" id="envelop" y="192"><path d="m14.5 2h-13c-0.825 0-1.5 0.675-1.5 1.5v10c0 0.825 0.675 1.5 1.5 1.5h13c0.825 0 1.5-0.675 1.5-1.5v-10c0-0.825-0.675-1.5-1.5-1.5zm-8.27 6.6l-4.23 3.295v-7.838l4.23 4.543zm-3.474-4.6h10.488l-5.244 3.938-5.244-3.938zm3.639 4.777l1.605 1.723 1.605-1.723 3.29 4.223h-9.79l3.29-4.223zm3.375-0.177l4.23-4.543v7.838l-4.23-3.295z" fill="#444"/></svg><svg xmlns:xlink="http://www.w3.org/1999/xlink" height="16" width="16" version="1.1" viewBox="0 0 16 16" id="facebook2" y="208"><path d="m14.5 0h-13c-0.825 0-1.5 0.675-1.5 1.5v13c0 0.825 0.675 1.5 1.5 1.5h6.5v-7h-2v-2h2v-1c0-1.653 1.347-3 3-3h2v2h-2c-0.55 0-1 0.45-1 1v1h3l-0.5 2h-2.5v7h4.5c0.825 0 1.5-0.675 1.5-1.5v-13c0-0.825-0.675-1.5-1.5-1.5z" fill="#444"/></svg><svg xmlns:xlink="http://www.w3.org/1999/xlink" height="16" width="16" version="1.1" viewBox="0 0 16 16" id="file-empty" y="224"><path d="m14.341 3.579c-0.347-0.473-0.831-1.027-1.362-1.558s-1.085-1.015-1.558-1.362c-0.806-0.591-1.197-0.659-1.421-0.659h-7.75c-0.689 0-1.25 0.561-1.25 1.25v13.5c0 0.689 0.561 1.25 1.25 1.25h11.5c0.689 0 1.25-0.561 1.25-1.25v-9.75c0-0.224-0.068-0.615-0.659-1.421zm-2.07-0.85c0.48 0.48 0.856 0.912 1.134 1.271h-2.406v-2.405c0.359 0.278 0.792 0.654 1.271 1.134zm1.729 12.021c0 0.136-0.114 0.25-0.25 0.25h-11.5c-0.135 0-0.25-0.114-0.25-0.25v-13.5c0-0.135 0.115-0.25 0.25-0.25h7.75v3.5c0 0.276 0.224 0.5 0.5 0.5h3.5v9.75z" fill="#444"/></svg><svg xmlns:xlink="http://www.w3.org/1999/xlink" height="16" width="16" version="1.1" viewBox="0 0 16 16" id="file-text" y="240"><path d="m13.5 0h-12c-0.825 0-1.5 0.675-1.5 1.5v13c0 0.825 0.675 1.5 1.5 1.5h12c0.825 0 1.5-0.675 1.5-1.5v-13c0-0.825-0.675-1.5-1.5-1.5zm-0.5 14h-11v-12h11v12zm-9-7h7v1h-7zm0 2h7v1h-7zm0 2h7v1h-7zm0-6h7v1h-7z" fill="#444"/></svg><svg xmlns:xlink="http://www.w3.org/1999/xlink" height="16" width="16" version="1.1" viewBox="0 0 16 16" id="file-text2" y="256"><g fill="#444"><path d="m14.341 3.579c-0.347-0.473-0.831-1.027-1.362-1.558s-1.085-1.015-1.558-1.362c-0.806-0.591-1.197-0.659-1.421-0.659h-7.75c-0.689 0-1.25 0.561-1.25 1.25v13.5c0 0.689 0.561 1.25 1.25 1.25h11.5c0.689 0 1.25-0.561 1.25-1.25v-9.75c0-0.224-0.068-0.615-0.659-1.421zm-2.07-0.85c0.48 0.48 0.856 0.912 1.134 1.271h-2.406v-2.405c0.359 0.278 0.792 0.654 1.271 1.134zm1.729 12.021c0 0.136-0.114 0.25-0.25 0.25h-11.5c-0.135 0-0.25-0.114-0.25-0.25v-13.5c0-0.135 0.115-0.25 0.25-0.25h7.75v3.5c0 0.276 0.224 0.5 0.5 0.5h3.5v9.75z"/><path d="m11.5 13h-7c-0.276 0-0.5-0.224-0.5-0.5s0.224-0.5 0.5-0.5h7c0.276 0 0.5 0.224 0.5 0.5s-0.224 0.5-0.5 0.5z"/><path d="m11.5 11h-7c-0.276 0-0.5-0.224-0.5-0.5s0.224-0.5 0.5-0.5h7c0.276 0 0.5 0.224 0.5 0.5s-0.224 0.5-0.5 0.5z"/><path d="m11.5 9h-7c-0.276 0-0.5-0.224-0.5-0.5s0.224-0.5 0.5-0.5h7c0.276 0 0.5 0.224 0.5 0.5s-0.224 0.5-0.5 0.5z"/></g></svg><svg xmlns:xlink="http://www.w3.org/1999/xlink" height="16" width="16" version="1.1" viewBox="0 0 16 16" id="files-empty" y="272"><path d="m14.341 5.579c-0.347-0.473-0.831-1.027-1.362-1.558s-1.085-1.015-1.558-1.362c-0.806-0.591-1.197-0.659-1.421-0.659h-5.75c-0.689 0-1.25 0.561-1.25 1.25v11.5c0 0.689 0.561 1.25 1.25 1.25h9.5c0.689 0 1.25-0.561 1.25-1.25v-7.75c0-0.224-0.068-0.615-0.659-1.421zm-2.07-0.85c0.48 0.48 0.856 0.912 1.134 1.271h-2.406v-2.405c0.359 0.278 0.792 0.654 1.271 1.134zm1.729 10.021c0 0.136-0.114 0.25-0.25 0.25h-9.5c-0.136 0-0.25-0.114-0.25-0.25v-11.5c0-0.135 0.114-0.25 0.25-0.25h5.75v3.5c0 0.276 0.224 0.5 0.5 0.5h3.5v7.75z" fill="#444"/><path d="m9.421 0.659c-0.806-0.591-1.197-0.659-1.421-0.659h-5.75c-0.689 0-1.25 0.561-1.25 1.25v11.5c0 0.604 0.43 1.109 1 1.225v-12.725c0-0.135 0.115-0.25 0.25-0.25h7.607c-0.151-0.124-0.297-0.238-0.437-0.341z" fill="#444"/></svg><svg xmlns:xlink="http://www.w3.org/1999/xlink" height="16" width="16" version="1.1" viewBox="0 0 16 16" id="film" y="288"><path d="m0 2v12h16v-12h-16zm3 11h-2v-2h2v2zm0-4h-2v-2h2v2zm0-4h-2v-2h2v2zm9 8h-8v-10h8v10zm3 0h-2v-2h2v2zm0-4h-2v-2h2v2zm0-4h-2v-2h2v2zm-9 0v6l4-3z" fill="#444"/></svg><svg xmlns:xlink="http://www.w3.org/1999/xlink" height="16" width="16" version="1.1" viewBox="0 0 16 16" id="folder-download" y="304"><path d="m9 4l-2-2h-7v13h16v-11h-7zm-1 9.5l-3.5-3.5h2.5v-4h2v4h2.5l-3.5 3.5z" fill="#444"/></svg><svg xmlns:xlink="http://www.w3.org/1999/xlink" height="16" width="16" version="1.1" viewBox="0 0 16 16" id="folder-open" y="320"><path d="m13 15l3-8h-13l-3 8zm-11-9l-2 9v-13h4.5l2 2h6.5v2z" fill="#444"/></svg><svg xmlns:xlink="http://www.w3.org/1999/xlink" height="16" width="16" version="1.1" viewBox="0 0 16 16" id="folder-upload" y="336"><path d="m9 4l-2-2h-7v13h16v-11h-7zm-1 3.5l3.5 3.5h-2.5v4h-2v-4h-2.5l3.5-3.5z" fill="#444"/></svg><svg xmlns:xlink="http://www.w3.org/1999/xlink" height="16" width="16" version="1.1" viewBox="0 0 16 16" id="google-plus2" y="352"><path d="m14.5 0h-13c-0.825 0-1.5 0.675-1.5 1.5v13c0 0.825 0.675 1.5 1.5 1.5h13c0.825 0 1.5-0.675 1.5-1.5v-13c0-0.825-0.675-1.5-1.5-1.5zm-8.5 12c-2.212 0-4-1.787-4-4s1.788-4 4-4c1.081 0 1.984 0.394 2.681 1.047l-1.088 1.044c-0.297-0.284-0.816-0.616-1.594-0.616-1.366 0-2.481 1.131-2.481 2.525s1.116 2.525 2.481 2.525c1.584 0 2.178-1.137 2.269-1.725h-2.269v-1.372h3.778c0.034 0.2 0.063 0.4 0.063 0.663 0 2.287-1.531 3.909-3.841 3.909zm8-4h-1v1h-1v-1h-1v-1h1v-1h1v1h1v1z" fill="#444"/></svg><svg xmlns:xlink="http://www.w3.org/1999/xlink" height="16" width="16" version="1.1" viewBox="0 0 16 16" id="home2" y="368"><path d="m8 0.5l-8 8 1.5 1.5 1.5-1.5v6.5h4v-3h2v3h4v-6.5l1.5 1.5 1.5-1.5-8-8zm0 6.5c-0.552 0-1-0.448-1-1s0.448-1 1-1c0.552 0 1 0.448 1 1s-0.448 1-1 1z" fill="#444"/></svg><svg xmlns:xlink="http://www.w3.org/1999/xlink" height="16" width="16" version="1.1" viewBox="0 0 16 16" id="image" y="384"><g fill="#444"><path d="m14.998 2l0.002 0.002v11.996l-0.002 0.002h-13.996l-0.002-0.002v-11.996l0.002-0.002h13.996zm0.002-1h-14c-0.55 0-1 0.45-1 1v12c0 0.55 0.45 1 1 1h14c0.55 0 1-0.45 1-1v-12c0-0.55-0.45-1-1-1z"/><path d="m13 4.5c0 0.828-0.672 1.5-1.5 1.5s-1.5-0.672-1.5-1.5 0.672-1.5 1.5-1.5 1.5 0.672 1.5 1.5z"/><path d="m14 13h-12v-2l3.5-6 4 5h1l3.5-3z"/></g></svg><svg xmlns:xlink="http://www.w3.org/1999/xlink" height="16" width="16" version="1.1" viewBox="0 0 16 16" id="instagram" y="400"><path d="m14.5 0h-13c-0.825 0-1.5 0.675-1.5 1.5v13c0 0.825 0.675 1.5 1.5 1.5h13c0.825 0 1.5-0.675 1.5-1.5v-13c0-0.825-0.675-1.5-1.5-1.5zm-3.5 2.5c0-0.275 0.225-0.5 0.5-0.5h2c0.275 0 0.5 0.225 0.5 0.5v2c0 0.275-0.225 0.5-0.5 0.5h-2c-0.275 0-0.5-0.225-0.5-0.5v-2zm-3 2.5c1.656 0 3 1.344 3 3s-1.344 3-3 3c-1.656 0-3-1.344-3-3s1.344-3 3-3zm6 8.5c0 0.275-0.225 0.5-0.5 0.5h-11c-0.275 0-0.5-0.225-0.5-0.5v-6.5h1.1c-0.066 0.322-0.1 0.656-0.1 1 0 2.762 2.237 5 5 5s5-2.238 5-5c0-0.344-0.034-0.678-0.1-1h1.1v6.5z" fill="#444"/></svg><svg xmlns:xlink="http://www.w3.org/1999/xlink" height="16" width="17" version="1.1" viewBox="0 0 17 16" id="library" y="416"><path d="m16 15v-1h-1v-6h1v-1h-3v1h1v6h-3v-6h1v-1h-3v1h1v6h-3v-6h1v-1h-3v1h1v6h-3v-6h1v-1h-3v1h1v6h-1v1h-1v1h17v-1h-1z" fill="#444"/><path d="m8 0h1l8 5v1h-17v-1l8-5z" fill="#444"/></svg><svg xmlns:xlink="http://www.w3.org/1999/xlink" height="16" width="16" version="1.1" viewBox="0 0 16 16" id="linkedin" y="432"><path d="m14.5 0h-13c-0.825 0-1.5 0.675-1.5 1.5v13c0 0.825 0.675 1.5 1.5 1.5h13c0.825 0 1.5-0.675 1.5-1.5v-13c0-0.825-0.675-1.5-1.5-1.5zm-8.5 13h-2v-7h2v7zm-1-8c-0.553 0-1-0.447-1-1s0.447-1 1-1c0.553 0 1 0.447 1 1s-0.447 1-1 1zm8 8h-2v-4c0-0.553-0.447-1-1-1s-1 0.447-1 1v4h-2v-7h2v1.241c0.412-0.566 1.044-1.241 1.75-1.241 1.244 0 2.25 1.119 2.25 2.5v4.5z" fill="#444"/></svg><svg xmlns:xlink="http://www.w3.org/1999/xlink" height="16" width="16" version="1.1" viewBox="0 0 16 16" id="location" y="448"><path d="m8 0c-2.761 0-5 2.239-5 5 0 5 5 11 5 11s5-6 5-11c0-2.761-2.239-5-5-5zm0 8c-1.657 0-3-1.343-3-3s1.343-3 3-3 3 1.343 3 3-1.343 3-3 3z" fill="#444"/></svg><svg xmlns:xlink="http://www.w3.org/1999/xlink" height="16" width="16" version="1.1" viewBox="0 0 16 16" id="location2" y="464"><path d="m8 0c-2.761 0-5 2.239-5 5 0 5 5 11 5 11s5-6 5-11c0-2.761-2.239-5-5-5zm0 8.063c-1.691 0-3.063-1.371-3.063-3.063s1.371-3.063 3.063-3.063 3.063 1.371 3.063 3.063-1.371 3.063-3.063 3.063zm-1.937-3.063c0-1.07 0.867-1.938 1.938-1.938s1.938 0.867 1.938 1.938c0 1.07-0.867 1.938-1.938 1.938s-1.938-0.867-1.938-1.938z" fill="#444"/></svg><svg xmlns:xlink="http://www.w3.org/1999/xlink" height="16" width="16" version="1.1" viewBox="0 0 16 16" id="pencil2" y="480"><path d="m6 10l2-1 7-7-1-1-7 7-1 2zm-1.48 3.548c-0.494-1.043-1.026-1.574-2.069-2.069l1.548-4.262 2-1.217 6-6h-3l-6 6-3 10 10-3 6-6v-3l-6 6-1.217 2z" fill="#444"/></svg><svg xmlns:xlink="http://www.w3.org/1999/xlink" height="16" width="16" version="1.1" viewBox="0 0 16 16" id="phone-hang-up" y="496"><path d="m15.897 9c0.125 0.867 0.207 2.053-0.182 2.507-0.643 0.751-4.714 0.751-4.714-0.751 0-0.756 0.67-1.252 0.027-2.003-0.632-0.738-1.766-0.75-3.027-0.751s-2.394 0.012-3.027 0.751c-0.643 0.751 0.027 1.247 0.027 2.003 0 1.501-4.071 1.501-4.714 0.751-0.389-0.454-0.307-1.64-0.182-2.507 0.096-0.579 0.339-1.203 1.118-2 1.168-1.09 2.935-1.98 6.716-2h0.063s0.041 0 0.063 0c3.781 0.019 5.548 0.91 6.716 2 0.778 0.797 1.022 1.421 1.118 2z" fill="#444"/></svg><svg xmlns:xlink="http://www.w3.org/1999/xlink" height="16" width="16" version="1.1" viewBox="0 0 16 16" id="phone" y="512"><path d="m11 10c-1 1-1 2-2 2s-2-1-3-2-2-2-2-3 1-1 2-2-2-4-3-4-3 3-3 3c0 2 2.055 6.055 4 8s6 4 8 4 3-2 3-3-3-4-4-3z" fill="#444"/></svg><svg xmlns:xlink="http://www.w3.org/1999/xlink" height="16" width="16" version="1.1" viewBox="0 0 16 16" id="play" y="528"><path d="m15.331 2.502c-2.244-0.323-4.724-0.502-7.331-0.502s-5.087 0.179-7.331 0.502c-0.43 1.683-0.669 3.543-0.669 5.498s0.239 3.815 0.669 5.498c2.244 0.323 4.724 0.502 7.331 0.502s5.087-0.179 7.331-0.502c0.43-1.683 0.669-3.543 0.669-5.498s-0.239-3.815-0.669-5.498zm-9.331 8.498v-6l5 3-5 3z" fill="#444"/></svg><svg xmlns:xlink="http://www.w3.org/1999/xlink" height="16" width="16" version="1.1" viewBox="0 0 16 16" id="price-tag" y="544"><path d="m15.25 0h-6c-0.412 0-0.989 0.239-1.28 0.53l-7.439 7.439c-0.292 0.292-0.292 0.769 0 1.061l6.439 6.439c0.292 0.292 0.769 0.292 1.061 0l7.439-7.439c0.292-0.292 0.53-0.868 0.53-1.28v-6c0-0.412-0.338-0.75-0.75-0.75zm-3.75 6c-0.828 0-1.5-0.672-1.5-1.5s0.672-1.5 1.5-1.5 1.5 0.672 1.5 1.5-0.672 1.5-1.5 1.5z" fill="#444"/></svg><svg xmlns:xlink="http://www.w3.org/1999/xlink" height="16" width="20" version="1.1" viewBox="0 0 20 16" id="price-tags" y="560"><path d="m19.25 0h-6c-0.412 0-0.989 0.239-1.28 0.53l-7.439 7.439c-0.292 0.292-0.292 0.769 0 1.061l6.439 6.439c0.292 0.292 0.769 0.292 1.061 0l7.439-7.439c0.292-0.292 0.53-0.868 0.53-1.28v-6c0-0.412-0.337-0.75-0.75-0.75zm-3.75 6c-0.828 0-1.5-0.672-1.5-1.5s0.672-1.5 1.5-1.5 1.5 0.672 1.5 1.5-0.672 1.5-1.5 1.5z" fill="#444"/><path d="m2 8.5l8.5-8.5h-1.25c-0.412 0-0.989 0.239-1.28 0.53l-7.439 7.439c-0.292 0.292-0.292 0.769 0 1.061l6.439 6.439c0.292 0.292 0.769 0.292 1.061 0l0.47-0.47-6.5-6.5z" fill="#444"/></svg><svg xmlns:xlink="http://www.w3.org/1999/xlink" height="16" width="16" version="1.1" viewBox="0 0 16 16" id="profile" y="576"><path d="m13.5 0h-12c-0.825 0-1.5 0.675-1.5 1.5v13c0 0.825 0.675 1.5 1.5 1.5h12c0.825 0 1.5-0.675 1.5-1.5v-13c0-0.825-0.675-1.5-1.5-1.5zm-0.5 14h-11v-12h11v12zm-9-5h7v1h-7zm0 2h7v1h-7zm1-6.5c0-0.828 0.672-1.5 1.5-1.5s1.5 0.672 1.5 1.5c0 0.828-0.672 1.5-1.5 1.5s-1.5-0.672-1.5-1.5zm2.5 1.5h-2c-0.825 0-1.5 0.45-1.5 1v1h5v-1c0-0.55-0.675-1-1.5-1z" fill="#444"/></svg><svg xmlns:xlink="http://www.w3.org/1999/xlink" height="16" width="16" version="1.1" viewBox="0 0 16 16" id="search" y="592"><path d="m15.504 13.616l-3.79-3.223c-0.392-0.353-0.811-0.514-1.149-0.499 0.895-1.048 1.435-2.407 1.435-3.893 0-3.314-2.686-6-6-6s-6 2.686-6 6 2.686 6 6 6c1.486 0 2.845-0.54 3.893-1.435-0.016 0.338 0.146 0.757 0.499 1.149l3.223 3.79c0.552 0.613 1.453 0.665 2.003 0.115s0.498-1.452-0.115-2.003zm-9.504-3.616c-2.209 0-4-1.791-4-4s1.791-4 4-4 4 1.791 4 4-1.791 4-4 4z" fill="#444"/></svg><svg xmlns:xlink="http://www.w3.org/1999/xlink" height="16" width="16" version="1.1" viewBox="0 0 16 16" id="tumblr2" y="608"><path d="m14.5 0h-13c-0.825 0-1.5 0.675-1.5 1.5v13c0 0.825 0.675 1.5 1.5 1.5h13c0.825 0 1.5-0.675 1.5-1.5v-13c0-0.825-0.675-1.5-1.5-1.5zm-3.066 12.884c-0.472 0.222-0.9 0.378-1.281 0.469-0.381 0.088-0.797 0.134-1.241 0.134-0.506 0-0.803-0.063-1.191-0.191s-0.719-0.309-0.994-0.544c-0.275-0.238-0.463-0.488-0.569-0.753s-0.159-0.65-0.159-1.156v-3.872h-1.5v-1.563c0.434-0.141 0.938-0.344 1.244-0.606 0.309-0.263 0.559-0.578 0.744-0.947 0.188-0.369 0.316-0.837 0.388-1.406h1.569v2.55h2.556v1.972h-2.553v2.831c0 0.641-0.009 1.009 0.059 1.191s0.238 0.369 0.422 0.475c0.244 0.147 0.525 0.219 0.838 0.219 0.559 0 1.116-0.181 1.669-0.544v1.741z" fill="#444"/></svg><svg xmlns:xlink="http://www.w3.org/1999/xlink" height="16" width="16" version="1.1" viewBox="0 0 16 16" id="twitter" y="624"><path d="m16 3.538c-0.588 0.263-1.222 0.438-1.884 0.516 0.678-0.406 1.197-1.05 1.444-1.816-0.634 0.375-1.338 0.65-2.084 0.797-0.6-0.638-1.453-1.034-2.397-1.034-1.813 0-3.281 1.469-3.281 3.281 0 0.256 0.028 0.506 0.084 0.747-2.728-0.138-5.147-1.444-6.766-3.431-0.281 0.484-0.444 1.05-0.444 1.65 0 1.138 0.578 2.144 1.459 2.731-0.538-0.016-1.044-0.166-1.488-0.409v0.041c0 1.591 1.131 2.919 2.634 3.219-0.275 0.075-0.566 0.116-0.866 0.116-0.212 0-0.416-0.022-0.619-0.059 0.419 1.303 1.631 2.253 3.066 2.281-1.125 0.881-2.538 1.406-4.078 1.406-0.266 0-0.525-0.016-0.784-0.047 1.456 0.934 3.181 1.475 5.034 1.475 6.037 0 9.341-5.003 9.341-9.341 0-0.144-0.003-0.284-0.009-0.425 0.641-0.459 1.197-1.038 1.637-1.697z" fill="#444"/></svg></svg>
