<?xml version="1.0" encoding="utf-8"?>
<!-- Generator: Adobe Illustrator 15.0.0, SVG Export Plug-In . SVG Version: 6.00 Build 0)  -->
<!DOCTYPE svg PUBLIC "-//W3C//DTD SVG 1.1//EN" "http://www.w3.org/Graphics/SVG/1.1/DTD/svg11.dtd">
<!-- Generator: --> 
<svg version="1.1" id="Layer_1" xmlns="http://www.w3.org/2000/svg" xmlns:xlink="http://www.w3.org/1999/xlink" x="0px" y="0px" width="960pt" height="540pt" viewBox="0 0 960 540" enable-background="new 0 0 960 540" xml:space="preserve">
<style type="text/css">
		path:hover{
			fill:#373737 !important;
			opacity:0.7;
			transform: scale(.99, .99);
			cursor:pointer;
		}
			path{
			-webkit-transition:1s ease-in-out ;
			opacity:0;

		}
		.unit_filter {
	opacity: .5;
	-webkit-animation: unit_filter 0.6s;
}

@-webkit-keyframes unit_filter {
	0% {
		-webkit-transform: translateX(100px) translateY(100px) scale(0);
	}
	100% {
		-webkit-transform: translateX(0) translateY(0) scale(1);
	}
}
		<!-- .filter{
			fill:#28bead;
			 animation: ufo-big .3s ease infinite;
		}
		@keyframes ufo-big {
			  0%        {opacity: 0}
			  15%, 70%  {opacity: .6}
			  85%, 100% {opacity: 0}
			} -->

</style>
<image overflow="visible" width="960" height="540" xlink:href="Slide_2.jpg"  >
	</image>


	<g  id="FRAME_0"  fill-rule="evenodd">
		<animate id="A_0" attributeName="visibility" attributeType="CSS" values="visible" dur="0.083333s" begin="0.0s;A_9.end"/>
		<path 
		 d="M539.099976,239.850006 Q534.349976,239.850006 537.599976,235.250000 Q543.099976,235.350006 539.099976,239.850006 M483.250000,327.500000 L275.250000,252.750000 L272.350006,210.850006 L272.350006,209.250000 L483.250000,273.500000 L636.000000,227.350006 L633.599976,273.850006 L483.250000,327.500000 "/>
	</g>

<g  id="FRAME_0"  fill-rule="evenodd">
		<animate id="A_0" attributeName="visibility" attributeType="CSS" values="visible" dur="0.083333s" begin="0.0s;A_9.end"/>
		<path 
		 d="M539.099976,239.850006 Q534.349976,239.850006 537.599976,235.250000 Q543.099976,235.350006 539.099976,239.850006 M635.849976,227.350006 L716.349976,203.100006 L713.000000,245.500000 L633.750000,273.850006 L633.500000,272.350006 L635.849976,227.350006 "/>
	</g>
	<g  id="FRAME_0"  fill-rule="evenodd">
		<animate id="A_0" attributeName="visibility" attributeType="CSS" values="visible" dur="0.083333s" begin="0.0s;A_9.end"/>
		<path 
		 d="M483.250000,327.500000 L275.500000,253.000000 L272.250000,211.000000 L272.250000,209.250000 L483.250000,273.500000 L716.500000,203.250000 L713.000000,245.750000 L483.250000,327.500000 "/>
	</g>
	<g  id="FRAME_0" fill-rule="evenodd">
		<animate id="A_0" attributeName="visibility" attributeType="CSS" values="visible" dur="0.083333s" begin="0.0s;A_9.end"/>
		<path 
		 d="M539.250000,239.850006 Q534.500000,239.750000 537.250000,235.500000 L538.849976,235.100006 L539.750000,235.350006 L540.750000,236.350006 L541.000000,238.100006 L540.500000,239.100006 L539.250000,239.850006 M483.000000,538.599976 L287.100006,425.750000 L278.500000,300.500000 L278.750000,299.750000 L483.100006,385.600006 L709.349976,291.500000 L699.849976,414.600006 L483.000000,538.599976 "/>
	</g>
		<g  id="FRAME_0"  fill-rule="evenodd">
		<animate id="A_0" attributeName="visibility" attributeType="CSS" values="visible" dur="0.083333s" begin="0.0s;A_9.end"/>
		<path 
		 d="M483.000000,385.500000 L278.750000,300.000000 L269.000000,163.500000 L269.000000,162.250000 L269.750000,162.000000 L483.250000,214.250000 L720.000000,157.000000 L709.500000,291.500000 L483.000000,385.500000 "/>
	</g>
		<g  id="FRAME_0" 	 fill-rule="evenodd">
		<animate id="A_0" attributeName="visibility" attributeType="CSS" values="visible" dur="0.083333s" begin="0.0s;A_9.end"/>
		<path 
		 d="M483.350006,214.100006 L269.100006,162.000000 L258.750000,11.750000 L258.750000,10.600000 L483.500000,20.750000 L731.349976,9.750000 L720.000000,157.000000 L483.350006,214.100006 M539.250000,239.850006 Q534.500000,239.750000 537.250000,235.500000 L538.849976,235.100006 L539.750000,235.350006 L540.750000,236.350006 L541.000000,238.100006 L540.500000,239.100006 L539.250000,239.850006 "/>
	</g>
</svg>