<?xml version="1.0" encoding="utf-8"?>
<!-- Generator: Adobe Illustrator 18.0.0, SVG Export Plug-In . SVG Version: 6.00 Build 0)  -->
<!DOCTYPE svg PUBLIC "-//W3C//DTD SVG 1.1//EN" "http://www.w3.org/Graphics/SVG/1.1/DTD/svg11.dtd">
<svg version="1.1" id="Layer_1" xmlns="http://www.w3.org/2000/svg" xmlns:xlink="http://www.w3.org/1999/xlink" x="0px" y="0px"
	 width="125.726px" height="114.938px" viewBox="0 0 125.726 114.938" style="enable-background:new 0 0 125.726 114.938;"
	 xml:space="preserve">
<style type="text/css">
	.st0{opacity:0.28;}
	.st1{fill:#231F20;}
	.st2{fill:#FFFFFF;}
</style>
<g>
	<g class="st0">
		<path class="st1" d="M21.244,17.334c1.142,0,2.124,0.176,2.944,0.527c0.82,0.352,1.494,0.842,2.021,1.472
			c0.527,0.63,0.945,1.37,1.252,2.219c0.308,0.85,0.534,1.758,0.681,2.725h0.264c1.23,0,2.358-0.249,3.384-0.747
			c1.025-0.498,1.904-1.127,2.637-1.89l0.659,1.187c-0.586,0.938-1.516,1.714-2.791,2.329c-1.274,0.615-2.586,1.04-3.933,1.274
			c0,0.293,0.007,0.586,0.022,0.879c0.015,0.293,0.022,0.601,0.022,0.923c0,3.603-0.659,6.431-1.978,8.481
			c-1.318,2.051-3.164,3.076-5.537,3.076c-0.967,0-1.941-0.176-2.922-0.527c-0.982-0.352-1.868-0.937-2.659-1.758
			c-0.791-0.82-1.428-1.875-1.912-3.164c-0.483-1.289-0.725-2.885-0.725-4.79c0-1.289,0.139-2.651,0.417-4.086
			c0.278-1.435,0.747-2.753,1.406-3.955c0.659-1.201,1.538-2.197,2.637-2.988S19.603,17.334,21.244,17.334z M21.706,36.449
			c1.545,0,2.681-0.769,3.411-2.307c0.729-1.538,1.093-3.713,1.093-6.525c0-0.176,0-0.352,0-0.527s-0.015-0.352-0.044-0.527
			c-0.85-0.059-1.458-0.249-1.824-0.571c-0.367-0.322-0.549-0.864-0.549-1.626c0-0.674,0.146-1.149,0.439-1.428
			c0.292-0.278,0.732-0.432,1.318-0.461c-0.35-1.042-0.794-1.763-1.333-2.166c-0.539-0.402-1.143-0.603-1.813-0.603
			c-0.904,0-1.669,0.301-2.295,0.904c-0.626,0.602-1.136,1.373-1.53,2.313s-0.678,1.976-0.852,3.106
			c-0.175,1.131-0.262,2.24-0.262,3.326c0,1.439,0.131,2.614,0.393,3.525c0.263,0.911,0.598,1.63,1.005,2.159
			s0.86,0.896,1.355,1.102C20.714,36.347,21.21,36.449,21.706,36.449z"/>
		<path class="st1" d="M36.008,17.553v3.691c0.352-0.527,0.695-1.025,1.033-1.494c0.336-0.468,0.71-0.879,1.121-1.23
			c0.41-0.352,0.864-0.637,1.362-0.857c0.498-0.22,1.054-0.33,1.669-0.33c0.996,0,1.729,0.257,2.197,0.769
			c0.468,0.513,0.703,1.136,0.703,1.868c0,0.439-0.073,0.806-0.22,1.099c-0.147,0.293-0.323,0.527-0.527,0.703
			c-0.205,0.176-0.425,0.301-0.659,0.374c-0.235,0.073-0.439,0.11-0.615,0.11c-0.264,0-0.477-0.059-0.637-0.176
			c-0.161-0.117-0.323-0.242-0.483-0.374c-0.161-0.132-0.344-0.256-0.549-0.374c-0.205-0.117-0.469-0.176-0.791-0.176
			c-0.674,0-1.318,0.235-1.934,0.703c-0.615,0.469-1.172,0.967-1.67,1.494v16.171h-4.395V17.553H36.008z"/>
		<path class="st1" d="M72.043,17.553v14.941c0,0.352,0.014,0.755,0.044,1.208c0.028,0.455,0.109,0.887,0.241,1.296
			c0.132,0.411,0.337,0.755,0.615,1.033c0.278,0.279,0.682,0.417,1.208,0.417c0.234,0,0.491-0.029,0.77-0.088
			c0.278-0.058,0.505-0.117,0.681-0.176c0.029,0.147,0.051,0.279,0.066,0.396c0.015,0.118,0.021,0.25,0.021,0.396
			c0,0.879-0.337,1.568-1.011,2.065c-0.674,0.498-1.436,0.747-2.284,0.747c-0.909,0-1.729-0.314-2.461-0.945
			c-0.733-0.629-1.23-1.692-1.494-3.186c-0.439,1.143-1.158,2.117-2.153,2.922c-0.997,0.806-2.197,1.208-3.604,1.208
			c-0.879,0-1.766-0.183-2.659-0.549c-0.894-0.366-1.691-0.945-2.395-1.736s-1.282-1.816-1.736-3.076
			c-0.454-1.259-0.681-2.783-0.681-4.57c0-1.376,0.153-2.805,0.461-4.284c0.308-1.479,0.791-2.827,1.45-4.043
			c0.659-1.215,1.517-2.219,2.571-3.01s2.313-1.187,3.779-1.187c0.762,0,1.545,0.159,2.351,0.475
			c0.806,0.316,1.413,0.921,1.824,1.812v-2.067H72.043z M63.605,36.449c0.556,0,1.083-0.132,1.582-0.396
			c0.497-0.265,0.93-0.617,1.296-1.058s0.651-0.947,0.857-1.52c0.204-0.573,0.308-1.183,0.308-1.829V21.601
			c-0.206-0.5-0.514-0.94-0.923-1.322c-0.411-0.382-0.997-0.573-1.758-0.573c-0.938,0-1.729,0.316-2.373,0.948
			c-0.645,0.631-1.172,1.432-1.582,2.401c-0.411,0.97-0.711,2.049-0.901,3.238c-0.19,1.19-0.285,2.328-0.285,3.415
			c0,2.38,0.366,4.098,1.099,5.155C61.656,35.921,62.55,36.449,63.605,36.449z"/>
		<path class="st1" d="M17.596,68.661l0.044,3.384c0.556-0.586,1.208-1.062,1.956-1.429c0.747-0.365,1.618-0.549,2.614-0.549
			c1.025,0,1.978,0.22,2.856,0.659s1.648,1.105,2.307,1.999c0.659,0.895,1.179,2.021,1.56,3.384c0.38,1.362,0.571,2.981,0.571,4.856
			c0,3.662-0.691,6.503-2.073,8.524c-1.382,2.021-3.22,3.032-5.514,3.032c-0.971,0-1.802-0.184-2.493-0.549
			c-0.69-0.366-1.301-0.887-1.83-1.561v11.733l-4.395,1.099V68.661H17.596z M20.646,72.924c-0.648,0-1.23,0.183-1.746,0.549
			c-0.516,0.367-0.95,0.887-1.304,1.561v13.183c0.412,0.527,0.876,0.908,1.392,1.143c0.516,0.235,1.024,0.352,1.526,0.352
			c0.736,0,1.384-0.234,1.944-0.703c0.561-0.468,1.039-1.105,1.437-1.912c0.398-0.805,0.7-1.749,0.906-2.834
			c0.206-1.083,0.31-2.24,0.31-3.471c0-1.523-0.14-2.791-0.42-3.802c-0.28-1.011-0.641-1.816-1.083-2.417
			c-0.442-0.6-0.928-1.025-1.458-1.274C21.618,73.049,21.117,72.924,20.646,72.924z"/>
		<path class="st1" d="M36.228,61.498v23.729c0,0.294,0.014,0.659,0.044,1.099c0.029,0.439,0.11,0.872,0.242,1.297
			s0.33,0.791,0.593,1.099s0.629,0.461,1.099,0.461c1.435,0,2.49-1.597,3.164-4.79h1.626c-0.323,1.846-0.732,3.304-1.23,4.373
			c-0.499,1.069-1.025,1.883-1.582,2.438c-0.557,0.557-1.128,0.916-1.713,1.076c-0.586,0.161-1.114,0.242-1.582,0.242
			c-1.026,0-1.861-0.198-2.505-0.593c-0.645-0.396-1.158-0.901-1.538-1.517c-0.381-0.615-0.645-1.303-0.791-2.065
			c-0.147-0.762-0.22-1.494-0.22-2.197V62.114L36.228,61.498z"/>
		<path class="st1" d="M57.498,70.287v14.94c0,0.294,0.014,0.659,0.043,1.099s0.109,0.872,0.242,1.297
			c0.131,0.425,0.33,0.791,0.594,1.099s0.629,0.461,1.098,0.461c1.436,0,2.49-1.597,3.164-4.79h1.625
			c-0.322,1.846-0.732,3.304-1.23,4.373s-1.025,1.883-1.582,2.438c-0.557,0.557-1.127,0.916-1.713,1.076
			c-0.586,0.161-1.113,0.242-1.582,0.242c-0.674,0-1.252-0.117-1.736-0.352c-0.482-0.234-0.893-0.542-1.23-0.923
			c-0.336-0.38-0.607-0.819-0.813-1.318c-0.205-0.498-0.367-1.025-0.482-1.582c-0.439,1.143-1.15,2.125-2.133,2.944
			c-0.98,0.82-2.174,1.23-3.58,1.23c-0.879,0-1.766-0.176-2.66-0.527c-0.893-0.352-1.699-0.93-2.416-1.735
			c-0.718-0.806-1.304-1.846-1.758-3.12c-0.455-1.274-0.681-2.835-0.681-4.681c0-1.347,0.154-2.753,0.461-4.218
			s0.798-2.798,1.472-3.999c0.673-1.201,1.538-2.197,2.593-2.988c1.055-0.791,2.328-1.187,3.822-1.187
			c0.352,0,0.725,0.036,1.121,0.107c0.395,0.072,0.775,0.194,1.143,0.367c0.365,0.173,0.709,0.409,1.033,0.712
			c0.32,0.302,0.584,0.669,0.791,1.1v-2.066H57.498z M49.279,89.183c0.439,0,0.887-0.124,1.34-0.374
			c0.455-0.25,0.865-0.588,1.23-1.014c0.367-0.426,0.666-0.933,0.902-1.52c0.232-0.587,0.352-1.219,0.352-1.895V74.335
			c-0.207-0.47-0.521-0.902-0.945-1.3c-0.426-0.396-0.975-0.595-1.648-0.595c-0.938,0-1.742,0.315-2.416,0.947
			c-0.676,0.632-1.217,1.425-1.627,2.379c-0.41,0.955-0.711,1.998-0.9,3.129c-0.191,1.131-0.285,2.21-0.285,3.238
			c0,2.526,0.344,4.333,1.031,5.419C47.002,88.64,47.99,89.183,49.279,89.183z"/>
		<path class="st1" d="M66.988,70.287v3.34c0.439-0.791,0.886-1.429,1.34-1.912s0.916-0.842,1.385-1.076
			c0.468-0.234,0.915-0.388,1.34-0.462c0.425-0.072,0.827-0.109,1.209-0.109c1.318,0,2.38,0.249,3.186,0.747
			s1.413,1.136,1.825,1.911c0.408,0.776,0.68,1.626,0.813,2.549c0.131,0.923,0.197,1.81,0.197,2.659
			c0,0.527-0.016,1.105-0.043,1.735c-0.031,0.631-0.061,1.274-0.088,1.934c-0.031,0.659-0.061,1.318-0.088,1.978
			c-0.031,0.659-0.045,1.268-0.045,1.823c0,0.235,0.014,0.564,0.045,0.989c0.027,0.425,0.102,0.843,0.219,1.252
			c0.117,0.411,0.309,0.77,0.572,1.077s0.643,0.461,1.143,0.461c0.672,0,1.281-0.38,1.822-1.143c0.543-0.762,0.988-1.978,1.34-3.647
			h1.627c-0.322,1.846-0.732,3.304-1.23,4.373s-1.025,1.883-1.582,2.438c-0.557,0.557-1.113,0.916-1.67,1.076
			c-0.557,0.161-1.07,0.242-1.537,0.242c-0.939,0-1.73-0.184-2.374-0.549c-0.646-0.366-1.173-0.857-1.582-1.473
			c-0.411-0.615-0.711-1.333-0.901-2.153c-0.19-0.819-0.285-1.67-0.285-2.549c0-0.264,0.007-0.754,0.021-1.472
			s0.029-1.486,0.044-2.307s0.029-1.597,0.044-2.329s0.022-1.245,0.022-1.538c0-0.938-0.074-1.714-0.22-2.329
			c-0.147-0.615-0.352-1.099-0.615-1.45s-0.564-0.601-0.901-0.747s-0.696-0.22-1.076-0.22c-0.908,0-1.692,0.366-2.352,1.099
			s-1.193,1.963-1.604,3.691v14.062h-4.395V70.287H66.988z"/>
		<path class="st1" d="M96.869,75.78c0,2.051-0.842,3.765-2.527,5.142c-1.684,1.377-4.02,2.227-7.008,2.548
			c0.115,1.173,0.328,2.125,0.637,2.856c0.307,0.733,0.682,1.312,1.121,1.736s0.943,0.718,1.516,0.879
			c0.57,0.161,1.164,0.241,1.779,0.241c0.938,0,1.824-0.16,2.658-0.483c0.836-0.322,1.531-0.879,2.088-1.67
			c0.029,0.206,0.051,0.403,0.066,0.594c0.014,0.19,0.021,0.358,0.021,0.505c0,0.675-0.168,1.274-0.506,1.802
			c-0.336,0.527-0.791,0.989-1.361,1.385c-0.572,0.396-1.23,0.695-1.979,0.9c-0.746,0.205-1.531,0.308-2.35,0.308
			c-0.996,0-1.994-0.184-2.988-0.549c-0.996-0.366-1.898-0.952-2.703-1.758c-0.807-0.806-1.457-1.853-1.955-3.143
			c-0.5-1.288-0.748-2.856-0.748-4.702c0-1.229,0.139-2.563,0.418-3.998c0.277-1.436,0.746-2.769,1.406-3.999
			c0.658-1.23,1.523-2.256,2.592-3.076c1.07-0.82,2.396-1.23,3.979-1.23c0.73,0,1.441,0.081,2.131,0.241
			c0.688,0.162,1.311,0.455,1.867,0.879c0.557,0.425,1.004,1.004,1.34,1.736C96.701,73.656,96.869,74.609,96.869,75.78z
			 M87.289,81.757c2.08-0.322,3.729-1.055,4.943-2.197c1.217-1.143,1.824-2.549,1.824-4.219c0-1.113-0.191-1.912-0.57-2.396
			c-0.383-0.483-0.924-0.725-1.627-0.725c-0.762,0-1.428,0.293-2,0.879c-0.57,0.586-1.047,1.34-1.428,2.263
			s-0.666,1.949-0.857,3.076C87.385,79.567,87.289,80.673,87.289,81.757z"/>
		<path class="st1" d="M115.459,68.266c0,1.055-0.197,1.992-0.592,2.813c-0.393,0.82-0.881,1.575-1.463,2.263
			c-0.584,0.688-1.225,1.348-1.924,1.978c-0.699,0.631-1.348,1.274-1.945,1.934s-1.107,1.378-1.529,2.153
			c-0.424,0.776-0.664,1.663-0.721,2.659h-2.063c-0.09-0.439-0.135-0.85-0.135-1.23c0-1.201,0.322-2.278,0.967-3.23
			c0.643-0.951,1.361-1.896,2.152-2.834s1.508-1.919,2.154-2.944c0.643-1.025,0.967-2.227,0.967-3.604
			c0-0.879-0.141-1.626-0.418-2.241c-0.279-0.615-0.637-1.105-1.076-1.473c-0.439-0.365-0.939-0.637-1.494-0.813
			c-0.557-0.176-1.115-0.264-1.67-0.264c-0.527,0-1.033,0.088-1.518,0.264c-0.482,0.176-0.908,0.417-1.273,0.725
			c-0.367,0.308-0.666,0.675-0.9,1.099c-0.236,0.426-0.352,0.901-0.352,1.429c0,0.645,0.291,1.333,0.879,2.065
			c0.586,0.732,1.521,1.201,2.813,1.406c-0.236,0.615-0.609,1.076-1.121,1.384c-0.514,0.308-1.076,0.462-1.691,0.462
			c-0.5,0-1.004-0.095-1.518-0.286c-0.512-0.19-0.973-0.483-1.383-0.879c-0.412-0.396-0.74-0.886-0.99-1.472
			c-0.248-0.586-0.373-1.26-0.373-2.021c0-0.703,0.139-1.413,0.418-2.132c0.277-0.717,0.725-1.369,1.34-1.955
			s1.422-1.069,2.418-1.45c0.994-0.381,2.225-0.571,3.691-0.571c1.406,0,2.629,0.176,3.668,0.527
			c1.041,0.352,1.912,0.835,2.615,1.45s1.223,1.333,1.561,2.153C115.289,66.449,115.459,67.328,115.459,68.266z M103.33,89.578
			c0-0.791,0.277-1.479,0.834-2.065c0.557-0.586,1.246-0.879,2.066-0.879c0.791,0,1.479,0.293,2.064,0.879
			c0.586,0.587,0.879,1.274,0.879,2.065c0,0.82-0.293,1.509-0.879,2.065s-1.273,0.835-2.064,0.835c-0.82,0-1.51-0.278-2.066-0.835
			S103.33,90.399,103.33,89.578z"/>
	</g>
	<g>
		<path class="st2" d="M19.244,15.334c1.142,0,2.124,0.176,2.944,0.527c0.82,0.352,1.494,0.842,2.021,1.472
			c0.527,0.63,0.945,1.37,1.252,2.219c0.308,0.85,0.534,1.758,0.681,2.725h0.264c1.23,0,2.358-0.249,3.384-0.747
			c1.025-0.498,1.904-1.127,2.637-1.89l0.659,1.187c-0.586,0.938-1.516,1.714-2.791,2.329s-2.586,1.04-3.933,1.274
			c0,0.293,0.007,0.586,0.022,0.879c0.015,0.293,0.022,0.601,0.022,0.923c0,3.603-0.659,6.431-1.978,8.481
			c-1.318,2.051-3.164,3.076-5.537,3.076c-0.967,0-1.941-0.176-2.922-0.527c-0.982-0.352-1.868-0.937-2.659-1.758
			c-0.791-0.82-1.428-1.875-1.912-3.164c-0.483-1.289-0.725-2.885-0.725-4.79c0-1.289,0.139-2.651,0.417-4.086
			c0.278-1.435,0.747-2.753,1.406-3.955c0.659-1.201,1.538-2.197,2.637-2.988S17.603,15.334,19.244,15.334z M19.706,34.449
			c1.545,0,2.681-0.769,3.411-2.307c0.729-1.538,1.093-3.713,1.093-6.525c0-0.176,0-0.352,0-0.527s-0.015-0.352-0.044-0.527
			c-0.85-0.059-1.458-0.249-1.824-0.571c-0.367-0.322-0.549-0.864-0.549-1.626c0-0.674,0.146-1.149,0.439-1.428
			c0.292-0.278,0.732-0.432,1.318-0.461c-0.35-1.042-0.794-1.763-1.333-2.166c-0.539-0.402-1.143-0.603-1.813-0.603
			c-0.904,0-1.669,0.301-2.295,0.904c-0.626,0.602-1.136,1.373-1.53,2.313s-0.678,1.976-0.852,3.106
			c-0.175,1.131-0.262,2.24-0.262,3.326c0,1.439,0.131,2.614,0.393,3.525c0.263,0.911,0.598,1.63,1.005,2.159
			s0.86,0.896,1.355,1.102C18.714,34.347,19.21,34.449,19.706,34.449z"/>
		<path class="st2" d="M34.008,15.553v3.691c0.352-0.527,0.695-1.025,1.033-1.494c0.336-0.468,0.71-0.879,1.121-1.23
			c0.41-0.352,0.864-0.637,1.362-0.857c0.498-0.22,1.054-0.33,1.669-0.33c0.996,0,1.729,0.257,2.197,0.769
			c0.468,0.513,0.703,1.136,0.703,1.868c0,0.439-0.073,0.806-0.22,1.099c-0.147,0.293-0.323,0.527-0.527,0.703
			c-0.205,0.176-0.425,0.301-0.659,0.374c-0.235,0.073-0.439,0.11-0.615,0.11c-0.264,0-0.477-0.059-0.637-0.176
			c-0.161-0.117-0.323-0.242-0.483-0.374c-0.161-0.132-0.344-0.256-0.549-0.374c-0.205-0.117-0.469-0.176-0.791-0.176
			c-0.674,0-1.318,0.235-1.934,0.703c-0.615,0.469-1.172,0.967-1.67,1.494v16.171h-4.395V15.553H34.008z"/>
		<path class="st2" d="M70.043,15.553v14.941c0,0.352,0.014,0.755,0.044,1.208c0.028,0.455,0.109,0.887,0.241,1.296
			c0.132,0.411,0.337,0.755,0.615,1.033c0.278,0.279,0.682,0.417,1.208,0.417c0.234,0,0.491-0.029,0.77-0.088
			c0.278-0.058,0.505-0.117,0.681-0.176c0.029,0.147,0.051,0.279,0.066,0.396c0.015,0.118,0.021,0.25,0.021,0.396
			c0,0.879-0.337,1.568-1.011,2.065c-0.674,0.498-1.436,0.747-2.284,0.747c-0.909,0-1.729-0.314-2.461-0.945
			c-0.733-0.629-1.23-1.692-1.494-3.186c-0.439,1.143-1.158,2.117-2.153,2.922c-0.997,0.806-2.197,1.208-3.604,1.208
			c-0.879,0-1.766-0.183-2.659-0.549c-0.894-0.366-1.691-0.945-2.395-1.736s-1.282-1.816-1.736-3.076
			c-0.454-1.259-0.681-2.783-0.681-4.57c0-1.376,0.153-2.805,0.461-4.284c0.308-1.479,0.791-2.827,1.45-4.043
			c0.659-1.215,1.517-2.219,2.571-3.01s2.313-1.187,3.779-1.187c0.762,0,1.545,0.159,2.351,0.475
			c0.806,0.316,1.413,0.921,1.824,1.812v-2.067H70.043z M61.605,34.449c0.556,0,1.083-0.132,1.582-0.396
			c0.497-0.265,0.93-0.617,1.296-1.058s0.651-0.947,0.857-1.52c0.204-0.573,0.308-1.183,0.308-1.829V19.601
			c-0.206-0.5-0.514-0.94-0.923-1.322c-0.411-0.382-0.997-0.573-1.758-0.573c-0.938,0-1.729,0.316-2.373,0.948
			c-0.645,0.631-1.172,1.432-1.582,2.401c-0.411,0.97-0.711,2.049-0.901,3.238c-0.19,1.19-0.285,2.328-0.285,3.415
			c0,2.38,0.366,4.098,1.099,5.155C59.656,33.921,60.55,34.449,61.605,34.449z"/>
		<path class="st2" d="M15.596,66.661l0.044,3.384c0.556-0.586,1.208-1.062,1.956-1.429c0.747-0.365,1.618-0.549,2.614-0.549
			c1.025,0,1.978,0.22,2.856,0.659s1.648,1.105,2.307,1.999c0.659,0.895,1.179,2.021,1.56,3.384c0.38,1.362,0.571,2.981,0.571,4.856
			c0,3.662-0.691,6.503-2.073,8.524c-1.382,2.021-3.22,3.032-5.514,3.032c-0.971,0-1.802-0.184-2.493-0.549
			c-0.69-0.366-1.301-0.887-1.83-1.561v11.733l-4.395,1.099V66.661H15.596z M18.646,70.924c-0.648,0-1.23,0.183-1.746,0.549
			c-0.516,0.367-0.95,0.887-1.304,1.561v13.183c0.412,0.527,0.876,0.908,1.392,1.143c0.516,0.235,1.024,0.352,1.526,0.352
			c0.736,0,1.384-0.234,1.944-0.703c0.561-0.468,1.039-1.105,1.437-1.912c0.398-0.805,0.7-1.749,0.906-2.834
			c0.206-1.083,0.31-2.24,0.31-3.471c0-1.523-0.14-2.791-0.42-3.802c-0.28-1.011-0.641-1.816-1.083-2.417
			c-0.442-0.6-0.928-1.025-1.458-1.274C19.618,71.049,19.117,70.924,18.646,70.924z"/>
		<path class="st2" d="M34.228,59.498v23.729c0,0.294,0.014,0.659,0.044,1.099c0.029,0.439,0.11,0.872,0.242,1.297
			s0.33,0.791,0.593,1.099s0.629,0.461,1.099,0.461c1.435,0,2.49-1.597,3.164-4.79h1.626c-0.323,1.846-0.732,3.304-1.23,4.373
			c-0.499,1.069-1.025,1.883-1.582,2.438c-0.557,0.557-1.128,0.916-1.713,1.076c-0.586,0.161-1.114,0.242-1.582,0.242
			c-1.026,0-1.861-0.198-2.505-0.593c-0.645-0.396-1.158-0.901-1.538-1.517c-0.381-0.615-0.645-1.303-0.791-2.065
			c-0.147-0.762-0.22-1.494-0.22-2.197V60.114L34.228,59.498z"/>
		<path class="st2" d="M55.498,68.287v14.94c0,0.294,0.014,0.659,0.043,1.099s0.109,0.872,0.242,1.297
			c0.131,0.425,0.33,0.791,0.594,1.099s0.629,0.461,1.098,0.461c1.436,0,2.49-1.597,3.164-4.79h1.625
			c-0.322,1.846-0.732,3.304-1.23,4.373s-1.025,1.883-1.582,2.438c-0.557,0.557-1.127,0.916-1.713,1.076
			c-0.586,0.161-1.113,0.242-1.582,0.242c-0.674,0-1.252-0.117-1.736-0.352c-0.482-0.234-0.893-0.542-1.23-0.923
			c-0.336-0.38-0.607-0.819-0.813-1.318c-0.205-0.498-0.367-1.025-0.482-1.582c-0.439,1.143-1.15,2.125-2.133,2.944
			c-0.98,0.82-2.174,1.23-3.58,1.23c-0.879,0-1.766-0.176-2.66-0.527c-0.893-0.352-1.699-0.93-2.416-1.735
			c-0.718-0.806-1.304-1.846-1.758-3.12c-0.455-1.274-0.681-2.835-0.681-4.681c0-1.347,0.154-2.753,0.461-4.218
			s0.798-2.798,1.472-3.999c0.673-1.201,1.538-2.197,2.593-2.988c1.055-0.791,2.328-1.187,3.822-1.187
			c0.352,0,0.725,0.036,1.121,0.107c0.395,0.072,0.775,0.194,1.143,0.367c0.365,0.173,0.709,0.409,1.033,0.712
			c0.32,0.302,0.584,0.669,0.791,1.1v-2.066H55.498z M47.279,87.183c0.439,0,0.887-0.124,1.34-0.374
			c0.455-0.25,0.865-0.588,1.23-1.014c0.367-0.426,0.666-0.933,0.902-1.52c0.232-0.587,0.352-1.219,0.352-1.895V72.335
			c-0.207-0.47-0.521-0.902-0.945-1.3c-0.426-0.396-0.975-0.595-1.648-0.595c-0.938,0-1.742,0.315-2.416,0.947
			c-0.676,0.632-1.217,1.425-1.627,2.379c-0.41,0.955-0.711,1.998-0.9,3.129c-0.191,1.131-0.285,2.21-0.285,3.238
			c0,2.526,0.344,4.333,1.031,5.419C45.002,86.64,45.99,87.183,47.279,87.183z"/>
		<path class="st2" d="M64.988,68.287v3.34c0.439-0.791,0.886-1.429,1.34-1.912s0.916-0.842,1.385-1.076
			c0.468-0.234,0.915-0.388,1.34-0.462c0.425-0.072,0.827-0.109,1.209-0.109c1.318,0,2.38,0.249,3.186,0.747
			s1.413,1.136,1.824,1.911c0.409,0.776,0.681,1.626,0.813,2.549s0.198,1.81,0.198,2.659c0,0.527-0.016,1.105-0.044,1.735
			c-0.03,0.631-0.06,1.274-0.088,1.934c-0.03,0.659-0.06,1.318-0.088,1.978c-0.03,0.659-0.044,1.268-0.044,1.823
			c0,0.235,0.014,0.564,0.044,0.989c0.028,0.425,0.102,0.843,0.22,1.252c0.116,0.411,0.308,0.77,0.572,1.077
			c0.264,0.308,0.643,0.461,1.143,0.461c0.672,0,1.281-0.38,1.822-1.143c0.543-0.762,0.988-1.978,1.34-3.647h1.627
			c-0.322,1.846-0.732,3.304-1.23,4.373s-1.025,1.883-1.582,2.438c-0.557,0.557-1.113,0.916-1.67,1.076
			c-0.557,0.161-1.07,0.242-1.538,0.242c-0.938,0-1.729-0.184-2.373-0.549c-0.646-0.366-1.173-0.857-1.582-1.473
			c-0.411-0.615-0.711-1.333-0.901-2.153c-0.19-0.819-0.285-1.67-0.285-2.549c0-0.264,0.007-0.754,0.021-1.472
			s0.029-1.486,0.044-2.307s0.029-1.597,0.044-2.329s0.022-1.245,0.022-1.538c0-0.938-0.074-1.714-0.22-2.329
			c-0.147-0.615-0.352-1.099-0.615-1.45s-0.564-0.601-0.901-0.747s-0.696-0.22-1.076-0.22c-0.908,0-1.692,0.366-2.352,1.099
			s-1.193,1.963-1.604,3.691v14.062h-4.395V68.287H64.988z"/>
		<path class="st2" d="M94.869,73.78c0,2.051-0.842,3.765-2.527,5.142c-1.684,1.377-4.02,2.227-7.008,2.548
			c0.115,1.173,0.328,2.125,0.637,2.856c0.307,0.733,0.682,1.312,1.121,1.736s0.943,0.718,1.516,0.879
			c0.57,0.161,1.164,0.241,1.779,0.241c0.938,0,1.824-0.16,2.658-0.483c0.836-0.322,1.531-0.879,2.088-1.67
			c0.029,0.206,0.051,0.403,0.066,0.594c0.014,0.19,0.021,0.358,0.021,0.505c0,0.675-0.168,1.274-0.506,1.802
			c-0.336,0.527-0.791,0.989-1.361,1.385c-0.572,0.396-1.23,0.695-1.979,0.9c-0.746,0.205-1.531,0.308-2.35,0.308
			c-0.996,0-1.994-0.184-2.988-0.549c-0.996-0.366-1.898-0.952-2.703-1.758c-0.807-0.806-1.457-1.853-1.955-3.143
			c-0.5-1.288-0.748-2.856-0.748-4.702c0-1.229,0.139-2.563,0.418-3.998c0.277-1.436,0.746-2.769,1.406-3.999
			c0.658-1.23,1.523-2.256,2.592-3.076c1.07-0.82,2.396-1.23,3.979-1.23c0.73,0,1.441,0.081,2.131,0.241
			c0.688,0.162,1.311,0.455,1.867,0.879c0.557,0.425,1.004,1.004,1.34,1.736C94.701,71.656,94.869,72.609,94.869,73.78z
			 M85.289,79.757c2.08-0.322,3.729-1.055,4.943-2.197c1.217-1.143,1.824-2.549,1.824-4.219c0-1.113-0.191-1.912-0.57-2.396
			c-0.383-0.483-0.924-0.725-1.627-0.725c-0.762,0-1.428,0.293-2,0.879c-0.57,0.586-1.047,1.34-1.428,2.263
			s-0.666,1.949-0.857,3.076C85.385,77.567,85.289,78.673,85.289,79.757z"/>
		<path class="st2" d="M113.459,66.266c0,1.055-0.197,1.992-0.592,2.813c-0.393,0.82-0.881,1.575-1.463,2.263
			c-0.584,0.688-1.225,1.348-1.924,1.978c-0.699,0.631-1.348,1.274-1.945,1.934s-1.107,1.378-1.529,2.153
			c-0.424,0.776-0.664,1.663-0.721,2.659h-2.063c-0.09-0.439-0.135-0.85-0.135-1.23c0-1.201,0.322-2.278,0.967-3.23
			c0.643-0.951,1.361-1.896,2.152-2.834s1.508-1.919,2.154-2.944c0.643-1.025,0.967-2.227,0.967-3.604
			c0-0.879-0.141-1.626-0.418-2.241c-0.279-0.615-0.637-1.105-1.076-1.473c-0.439-0.365-0.939-0.637-1.494-0.813
			c-0.557-0.176-1.115-0.264-1.67-0.264c-0.527,0-1.033,0.088-1.518,0.264c-0.482,0.176-0.908,0.417-1.273,0.725
			c-0.367,0.308-0.666,0.675-0.9,1.099c-0.236,0.426-0.352,0.901-0.352,1.429c0,0.645,0.291,1.333,0.879,2.065
			c0.586,0.732,1.521,1.201,2.813,1.406c-0.236,0.615-0.609,1.076-1.121,1.384c-0.514,0.308-1.076,0.462-1.691,0.462
			c-0.5,0-1.004-0.095-1.518-0.286c-0.512-0.19-0.973-0.483-1.383-0.879c-0.412-0.396-0.74-0.886-0.99-1.472
			c-0.248-0.586-0.373-1.26-0.373-2.021c0-0.703,0.139-1.413,0.418-2.132c0.277-0.717,0.725-1.369,1.34-1.955
			s1.422-1.069,2.418-1.45c0.994-0.381,2.225-0.571,3.691-0.571c1.406,0,2.629,0.176,3.668,0.527
			c1.041,0.352,1.912,0.835,2.615,1.45s1.223,1.333,1.561,2.153C113.289,64.449,113.459,65.328,113.459,66.266z M101.33,87.578
			c0-0.791,0.277-1.479,0.834-2.065c0.557-0.586,1.246-0.879,2.066-0.879c0.791,0,1.479,0.293,2.064,0.879
			c0.586,0.587,0.879,1.274,0.879,2.065c0,0.82-0.293,1.509-0.879,2.065s-1.273,0.835-2.064,0.835c-0.82,0-1.51-0.278-2.066-0.835
			S101.33,88.399,101.33,87.578z"/>
	</g>
</g>
</svg>
