<?xml version="1.0" encoding="utf-8"?>
<!-- Generator: Adobe Illustrator 18.0.0, SVG Export Plug-In . SVG Version: 6.00 Build 0)  -->
<!DOCTYPE svg PUBLIC "-//W3C//DTD SVG 1.1//EN" "http://www.w3.org/Graphics/SVG/1.1/DTD/svg11.dtd">
<svg version="1.1" id="Layer_1" xmlns="http://www.w3.org/2000/svg" xmlns:xlink="http://www.w3.org/1999/xlink" x="0px" y="0px"
	 width="238px" height="128px" viewBox="31 61 238 128" style="enable-background:new 31 61 238 128;" xml:space="preserve">
<style type="text/css">
	.st0{fill:#FFC034;}
	.st1{fill:#FFFFFF;}
	.st2{fill:#454C53;}
	.st3{fill:#83DEEF;}
</style>
<g>
	<g>
		<path class="st0" d="M188.365,104.539c0,0-25.875-10.579-35.882-14.582c-10.006-4.002-25.159-3.431-25.159-3.431l27.161,21.443
			L188.365,104.539z"/>
		<path class="st1" d="M148.152,103.735c17.687-0.98,40.057-2.441,66.347-2.441c17.562,0,27.319,13.173,34.149,20.003
			c6.829,6.83-3.903,11.219-36.101,11.219c-32.197,0-167.046-12.285-167.046-12.285l-1.021-6.544c0,0,4.163-1.848,12.456-2.823
			l-13.367-29.77c0,0,9.748,2.803,14.089,5.404c4.341,2.602,22.82,20.308,22.82,20.308S102.681,106.255,148.152,103.735z"/>
		<path class="st0" d="M65.146,121.982c13.788,1.211,33.385,2.9,54.006,4.57c-1.261-1.044-2.613-2.039-4.083-2.99
			c-5.698-3.686-13.474-6.529-20.693-7.442c-7.296-0.921-15.097-0.588-21.629,1.911C69.846,119.141,67.355,120.419,65.146,121.982z"
			/>
		<path class="st2" d="M236.253,113.696h-26.75v5.987h31.961C239.802,117.623,238.072,115.62,236.253,113.696z"/>
		<path class="st0" d="M182.038,124c0,0-41.231,38.575-57.794,42.257c-11.708,2.602-21.562,2.303-21.562,2.303L143.661,124H182.038z
			"/>
		<g>
			<circle class="st3" cx="197.806" cy="116.69" r="2.573"/>
			<circle class="st3" cx="189.229" cy="116.69" r="2.573"/>
			<circle class="st3" cx="180.651" cy="116.69" r="2.573"/>
			<circle class="st3" cx="172.074" cy="116.69" r="2.573"/>
			<circle class="st3" cx="163.497" cy="116.69" r="2.573"/>
			<circle class="st3" cx="154.919" cy="116.69" r="2.573"/>
			<circle class="st3" cx="146.342" cy="116.69" r="2.573"/>
			<circle class="st3" cx="137.765" cy="116.69" r="2.573"/>
			<circle class="st3" cx="129.187" cy="116.69" r="2.573"/>
		</g>
	</g>
</g>
</svg>
