<?xml version="1.0" encoding="utf-8"?>
<!-- Generator: Adobe Illustrator 18.0.0, SVG Export Plug-In . SVG Version: 6.00 Build 0)  -->
<!DOCTYPE svg PUBLIC "-//W3C//DTD SVG 1.1//EN" "http://www.w3.org/Graphics/SVG/1.1/DTD/svg11.dtd">
<svg version="1.1" id="Layer_1" xmlns="http://www.w3.org/2000/svg" xmlns:xlink="http://www.w3.org/1999/xlink" x="0px" y="0px"
	 width="130.556px" height="55.701px" viewBox="0 0 130.556 55.701" style="enable-background:new 0 0 130.556 55.701;"
	 xml:space="preserve">
<g>
	<path d="M25.218,40.737h-4.357V13.11c-1.786,0.507-3.199,1.373-4.238,2.599c-1.04,1.227-1.559,2.759-1.559,4.599
		c0,0.719,0.052,1.326,0.159,1.818c0.105,0.494,0.237,0.92,0.396,1.279c0.159,0.36,0.35,0.667,0.575,0.92
		c0.225,0.254,0.456,0.486,0.694,0.699c-1.594,0-2.856-0.365-3.787-1.099s-1.395-1.979-1.395-3.738c0-1.279,0.332-2.485,0.996-3.618
		c0.665-1.133,1.548-2.133,2.651-2.999c1.103-0.866,2.365-1.553,3.787-2.059c1.422-0.507,2.89-0.76,4.405-0.76
		c0.292,0,0.578,0.007,0.857,0.02c0.279,0.014,0.551,0.034,0.817,0.061V40.737z"/>
	<path d="M32.935,20.747v3.038c0.399-0.72,0.806-1.299,1.219-1.739c0.413-0.439,0.833-0.766,1.259-0.979
		c0.426-0.213,0.833-0.353,1.22-0.419c0.386-0.066,0.752-0.101,1.099-0.101c1.2,0,2.166,0.227,2.899,0.68
		c0.732,0.454,1.286,1.033,1.659,1.739c0.373,0.707,0.62,1.479,0.739,2.319c0.12,0.839,0.18,1.646,0.18,2.418
		c0,0.48-0.014,1.007-0.04,1.581c-0.027,0.573-0.054,1.159-0.08,1.759c-0.027,0.6-0.054,1.199-0.08,1.799
		c-0.027,0.6-0.04,1.153-0.04,1.659c0,0.214,0.013,0.514,0.04,0.899c0.026,0.387,0.093,0.767,0.2,1.14
		c0.106,0.374,0.28,0.7,0.52,0.979c0.24,0.28,0.586,0.42,1.04,0.42c0.613,0,1.166-0.346,1.659-1.039s0.9-1.8,1.22-3.318h1.479
		c-0.293,1.679-0.667,3.005-1.119,3.978c-0.454,0.974-0.934,1.713-1.439,2.219c-0.507,0.507-1.013,0.834-1.52,0.979
		c-0.506,0.146-0.973,0.221-1.399,0.221c-0.854,0-1.573-0.167-2.159-0.5c-0.586-0.333-1.066-0.779-1.439-1.34
		c-0.374-0.56-0.646-1.212-0.819-1.959c-0.174-0.745-0.26-1.519-0.26-2.318c0-0.24,0.006-0.687,0.02-1.34
		c0.013-0.652,0.026-1.353,0.04-2.099c0.013-0.746,0.026-1.452,0.04-2.119c0.013-0.667,0.02-1.133,0.02-1.4
		c0-0.853-0.067-1.56-0.2-2.119c-0.134-0.56-0.32-0.999-0.56-1.319c-0.24-0.319-0.513-0.546-0.819-0.68
		c-0.307-0.133-0.633-0.199-0.979-0.199c-0.827,0-1.54,0.333-2.139,0.999c-0.6,0.667-1.086,1.786-1.459,3.358v12.794h-3.998V20.747
		H32.935z"/>
	<path d="M51.645,14.669v6.077h3.079v1.439h-3.079V34.35c0,0.319,0.013,0.685,0.04,1.097c0.026,0.413,0.1,0.805,0.22,1.177
		c0.12,0.372,0.306,0.685,0.56,0.938c0.253,0.252,0.606,0.378,1.06,0.378c0.72,0,1.405-0.359,2.059-1.079
		c0.653-0.72,1.166-1.813,1.539-3.278h1.479c-0.454,1.679-0.94,3.005-1.459,3.978c-0.52,0.974-1.06,1.713-1.619,2.219
		c-0.56,0.507-1.113,0.834-1.659,0.979c-0.547,0.146-1.046,0.221-1.5,0.221c-0.959,0-1.746-0.181-2.359-0.539
		c-0.613-0.358-1.093-0.817-1.439-1.376c-0.347-0.559-0.587-1.177-0.72-1.855c-0.134-0.679-0.2-1.35-0.2-2.015V22.186h-1.359v-1.439
		h1.359v-5.518L51.645,14.669z"/>
	<path d="M61.04,20.747v3.358c0.32-0.479,0.633-0.933,0.939-1.359c0.307-0.426,0.646-0.8,1.02-1.119
		c0.373-0.32,0.787-0.58,1.24-0.78c0.453-0.199,0.959-0.3,1.52-0.3c0.906,0,1.572,0.233,1.998,0.7
		c0.428,0.466,0.641,1.033,0.641,1.699c0,0.399-0.066,0.733-0.199,0.999c-0.135,0.267-0.295,0.479-0.48,0.64
		c-0.188,0.16-0.387,0.273-0.6,0.34c-0.215,0.067-0.4,0.1-0.561,0.1c-0.24,0-0.434-0.053-0.58-0.159s-0.293-0.22-0.439-0.34
		s-0.313-0.233-0.5-0.34c-0.186-0.106-0.426-0.16-0.719-0.16c-0.613,0-1.199,0.214-1.76,0.64c-0.559,0.427-1.066,0.88-1.52,1.359
		v14.713h-3.997V20.747H61.04z"/>
	<path d="M85.228,20.747v13.594c0,0.267,0.014,0.6,0.04,0.999s0.101,0.793,0.22,1.18c0.12,0.387,0.3,0.72,0.54,0.999
		c0.24,0.28,0.573,0.42,1,0.42c1.305,0,2.265-1.452,2.878-4.357h1.479c-0.294,1.679-0.667,3.005-1.119,3.978
		c-0.454,0.974-0.934,1.713-1.439,2.219c-0.507,0.507-1.026,0.834-1.56,0.979c-0.533,0.146-1.013,0.221-1.439,0.221
		c-0.613,0-1.139-0.107-1.579-0.32c-0.439-0.213-0.813-0.493-1.119-0.84c-0.307-0.346-0.554-0.745-0.74-1.199
		c-0.187-0.453-0.333-0.933-0.439-1.439c-0.399,1.04-1.046,1.934-1.938,2.679c-0.894,0.747-1.979,1.12-3.259,1.12
		c-0.8,0-1.606-0.16-2.419-0.48c-0.813-0.319-1.546-0.846-2.199-1.579c-0.653-0.732-1.186-1.679-1.599-2.839
		c-0.414-1.159-0.62-2.578-0.62-4.258c0-1.226,0.14-2.505,0.42-3.838c0.28-1.332,0.726-2.545,1.339-3.639
		c0.613-1.092,1.399-1.999,2.359-2.718c0.96-0.72,2.119-1.08,3.479-1.08c0.319,0,0.659,0.033,1.02,0.099
		c0.359,0.065,0.706,0.177,1.039,0.333c0.333,0.157,0.646,0.373,0.939,0.648c0.293,0.274,0.533,0.608,0.72,1v-1.88H85.228z
		 M77.752,37.939c0.4,0,0.807-0.113,1.22-0.34c0.413-0.228,0.786-0.535,1.119-0.923c0.333-0.387,0.606-0.848,0.82-1.383
		c0.213-0.534,0.319-1.108,0.319-1.724v-9.14c-0.187-0.428-0.474-0.821-0.859-1.182c-0.387-0.361-0.887-0.542-1.499-0.542
		c-0.854,0-1.586,0.287-2.199,0.862c-0.613,0.574-1.106,1.296-1.479,2.164s-0.646,1.817-0.819,2.847
		c-0.174,1.029-0.26,2.011-0.26,2.946c0,2.3,0.313,3.943,0.939,4.932C75.679,37.444,76.579,37.939,77.752,37.939z"/>
	<path d="M102.74,27.263c0,1.52-0.127,3.086-0.38,4.699c-0.254,1.612-0.673,3.085-1.26,4.418c-0.586,1.333-1.346,2.432-2.278,3.298
		c-0.934,0.866-2.093,1.3-3.479,1.3c-0.693,0-1.366-0.12-2.019-0.36c-0.654-0.239-1.24-0.586-1.76-1.039s-0.933-1.026-1.239-1.72
		c-0.307-0.692-0.46-1.479-0.46-2.358V20.747h3.998v13.594c0,0.453,0.026,0.893,0.08,1.319c0.054,0.426,0.166,0.806,0.34,1.139
		c0.173,0.334,0.413,0.607,0.72,0.82s0.7,0.319,1.18,0.319c0.825,0,1.52-0.3,2.079-0.899s1.02-1.379,1.379-2.339
		c0.36-0.96,0.62-2.032,0.779-3.219c0.16-1.186,0.24-2.365,0.24-3.539c0-0.746-0.026-1.485-0.08-2.219
		c-0.054-0.732-0.146-1.393-0.279-1.979c-0.134,0.134-0.307,0.221-0.521,0.26c-0.213,0.04-0.387,0.061-0.52,0.061
		c-0.64,0-1.119-0.227-1.439-0.68c-0.319-0.453-0.479-0.933-0.479-1.439c0-0.533,0.173-1.006,0.52-1.419s0.853-0.62,1.52-0.62
		c0.453,0,0.886,0.134,1.3,0.4c0.412,0.267,0.772,0.687,1.079,1.259c0.306,0.573,0.546,1.326,0.72,2.259
		C102.653,24.758,102.74,25.904,102.74,27.263z"/>
	<path d="M118.332,25.744c0,1.866-0.767,3.426-2.3,4.678c-1.532,1.254-3.658,2.026-6.376,2.319c0.105,1.066,0.3,1.933,0.579,2.599
		c0.28,0.667,0.62,1.193,1.02,1.579c0.4,0.387,0.859,0.653,1.38,0.8c0.52,0.146,1.059,0.22,1.619,0.22
		c0.853,0,1.659-0.146,2.419-0.439c0.759-0.293,1.392-0.8,1.898-1.52c0.026,0.187,0.047,0.367,0.061,0.54
		c0.013,0.174,0.02,0.326,0.02,0.46c0,0.613-0.153,1.159-0.46,1.639s-0.72,0.899-1.239,1.26c-0.52,0.359-1.119,0.633-1.799,0.819
		s-1.394,0.28-2.139,0.28c-0.907,0-1.813-0.167-2.719-0.5c-0.907-0.333-1.727-0.866-2.459-1.6c-0.733-0.732-1.326-1.686-1.779-2.858
		c-0.454-1.173-0.68-2.599-0.68-4.278c0-1.119,0.126-2.332,0.38-3.638c0.253-1.306,0.68-2.519,1.279-3.639
		c0.6-1.119,1.386-2.052,2.358-2.799c0.973-0.745,2.18-1.119,3.619-1.119c0.665,0,1.312,0.074,1.938,0.22
		c0.626,0.147,1.192,0.414,1.699,0.8c0.506,0.387,0.913,0.913,1.22,1.579C118.177,23.812,118.332,24.678,118.332,25.744z
		 M109.616,31.182c1.892-0.293,3.391-0.959,4.497-1.999c1.106-1.04,1.659-2.319,1.659-3.838c0-1.013-0.173-1.739-0.52-2.179
		c-0.347-0.44-0.84-0.66-1.479-0.66c-0.693,0-1.299,0.267-1.818,0.8c-0.521,0.533-0.954,1.22-1.3,2.059
		c-0.347,0.84-0.606,1.773-0.779,2.799C109.702,29.189,109.616,30.196,109.616,31.182z"/>
</g>
</svg>
