<?xml version="1.0" encoding="utf-8"?>
<!-- Generator: Adobe Illustrator 18.0.0, SVG Export Plug-In . SVG Version: 6.00 Build 0)  -->
<!DOCTYPE svg PUBLIC "-//W3C//DTD SVG 1.1//EN" "http://www.w3.org/Graphics/SVG/1.1/DTD/svg11.dtd">
<svg version="1.1" id="Layer_1" xmlns="http://www.w3.org/2000/svg" xmlns:xlink="http://www.w3.org/1999/xlink" x="0px" y="0px"
	 width="182px" height="120px" viewBox="46 65 182 120" style="enable-background:new 46 65 182 120;" xml:space="preserve">
<style type="text/css">
	.st0{opacity:0.28;}
	.st1{fill:#231F20;}
	.st2{fill:#FFFFFF;}
</style>
<g>
	<g class="st0">
		<path class="st1" d="M80.986,84.629V99.57c1.281,0,2.381-0.271,3.298-0.813s1.667-1.237,2.25-2.087s1.011-1.809,1.288-2.878
			s0.416-2.131,0.416-3.186c0-0.937-0.096-1.904-0.286-2.9c-0.191-0.996-0.593-1.912-1.208-2.747s-1.494-1.523-2.637-2.065
			s-2.666-0.813-4.57-0.813c-1.29,0-2.505,0.198-3.647,0.593c-1.143,0.395-2.131,0.966-2.966,1.713s-1.494,1.67-1.978,2.769
			s-0.725,2.366-0.725,3.801c0,0.909,0.073,1.67,0.22,2.285c0.146,0.615,0.322,1.128,0.527,1.538
			c0.205,0.411,0.41,0.725,0.615,0.945c0.205,0.22,0.366,0.374,0.483,0.461c-1.641,0-2.93-0.41-3.867-1.23
			c-0.938-0.82-1.406-2.182-1.406-4.087c0-1.406,0.366-2.731,1.099-3.977c0.732-1.245,1.714-2.343,2.944-3.296
			c1.23-0.952,2.651-1.706,4.263-2.263c1.611-0.556,3.31-0.835,5.097-0.835c1.934,0,3.662,0.242,5.186,0.725
			c1.523,0.483,2.797,1.157,3.823,2.021c1.025,0.865,1.809,1.868,2.351,3.01c0.542,1.143,0.813,2.373,0.813,3.691
			c0,1.23-0.219,2.498-0.657,3.801c-0.438,1.304-1.095,2.483-1.97,3.538s-1.962,1.927-3.261,2.615
			c-1.299,0.688-2.809,1.033-4.53,1.033h-0.963v12.524h-4.79V85.288L80.986,84.629z"/>
		<path class="st1" d="M98.827,91.484v3.691c0.352-0.527,0.695-1.025,1.033-1.494c0.336-0.468,0.709-0.879,1.121-1.23
			c0.41-0.352,0.863-0.637,1.362-0.857c0.498-0.22,1.055-0.33,1.67-0.33c0.995,0,1.728,0.257,2.197,0.769
			c0.468,0.513,0.703,1.136,0.703,1.868c0,0.439-0.074,0.806-0.22,1.099c-0.147,0.293-0.323,0.527-0.527,0.703
			c-0.206,0.176-0.426,0.301-0.659,0.374c-0.235,0.073-0.439,0.11-0.615,0.11c-0.264,0-0.477-0.059-0.638-0.176
			c-0.161-0.117-0.322-0.242-0.483-0.374s-0.345-0.256-0.549-0.374c-0.205-0.117-0.469-0.176-0.791-0.176
			c-0.675,0-1.318,0.235-1.934,0.703c-0.615,0.469-1.172,0.967-1.67,1.494v16.171h-4.395V91.484H98.827z"/>
		<path class="st1" d="M122.953,96.978c0,2.051-0.843,3.765-2.527,5.142s-4.021,2.227-7.009,2.548
			c0.116,1.172,0.329,2.125,0.637,2.856c0.308,0.733,0.682,1.312,1.121,1.736c0.439,0.425,0.944,0.718,1.516,0.879
			c0.571,0.162,1.165,0.242,1.78,0.242c1.406,0,2.725-0.366,3.955-1.099c1.23-0.732,2.226-1.962,2.988-3.691h1.406
			c-0.382,1.084-0.909,2.117-1.582,3.098c-0.675,0.982-1.466,1.846-2.373,2.593c-0.909,0.747-1.89,1.34-2.944,1.78
			s-2.139,0.659-3.252,0.659c-1.026,0-2.015-0.176-2.967-0.527s-1.795-0.93-2.526-1.736c-0.732-0.805-1.326-1.853-1.78-3.142
			s-0.681-2.871-0.681-4.746c0-1.23,0.139-2.563,0.417-3.999c0.278-1.435,0.747-2.769,1.406-3.999s1.523-2.256,2.593-3.076
			c1.069-0.82,2.396-1.23,3.978-1.23c0.731,0,1.442,0.081,2.131,0.242c0.688,0.162,1.311,0.455,1.868,0.879
			c0.556,0.425,1.003,1.004,1.34,1.736C122.784,94.854,122.953,95.806,122.953,96.978z M113.373,102.954
			c2.08-0.322,3.728-1.055,4.943-2.197s1.824-2.549,1.824-4.219c0-1.113-0.191-1.912-0.571-2.395
			c-0.382-0.483-0.923-0.725-1.626-0.725c-0.763,0-1.429,0.293-2,0.879s-1.048,1.34-1.428,2.263
			c-0.381,0.923-0.667,1.949-0.857,3.076C113.468,100.764,113.373,101.871,113.373,102.954z"/>
		<path class="st1" d="M129.764,91.484h3.56v1.582h-3.56v23.916c0,1.55-0.154,2.808-0.462,3.774
			c-0.308,0.965-0.71,1.726-1.208,2.282c-0.499,0.555-1.077,0.928-1.736,1.119c-0.659,0.189-1.355,0.285-2.087,0.285
			c-1.582,0-2.746-0.366-3.493-1.098c-0.747-0.733-1.121-1.788-1.121-3.164c0-0.733,0.169-1.406,0.506-2.021s0.776-1.18,1.318-1.692
			c0.542-0.513,1.149-0.967,1.823-1.362s1.362-0.74,2.065-1.033V88.145c0-2.549,0.6-4.46,1.802-5.734
			c1.201-1.274,2.739-1.912,4.614-1.912c0.879,0,1.685,0.132,2.417,0.396c0.731,0.264,1.376,0.674,1.934,1.23
			c0.556,0.557,0.988,1.245,1.296,2.065c0.308,0.821,0.462,1.788,0.462,2.9h-1.714c-0.176-1.171-0.491-2.094-0.945-2.769
			c-0.454-0.673-1.208-1.011-2.263-1.011c-0.703,0-1.26,0.154-1.67,0.461c-0.411,0.308-0.732,0.725-0.967,1.252
			s-0.389,1.165-0.462,1.912s-0.109,1.56-0.109,2.439L129.764,91.484L129.764,91.484z M123.392,122.158
			c0.85,0,1.391-0.455,1.626-1.362c0.234-0.909,0.352-2.153,0.352-3.735v-1.362c-1.318,0.644-2.314,1.347-2.988,2.109
			c-0.674,0.761-1.011,1.508-1.011,2.241c0,0.585,0.191,1.083,0.571,1.494C122.322,121.952,122.806,122.158,123.392,122.158z"/>
		<path class="st1" d="M149.627,96.978c0,2.051-0.843,3.765-2.527,5.142s-4.021,2.227-7.009,2.548
			c0.116,1.172,0.329,2.125,0.637,2.856c0.308,0.733,0.682,1.312,1.121,1.736c0.439,0.425,0.944,0.718,1.516,0.879
			c0.571,0.162,1.165,0.242,1.78,0.242c1.406,0,2.725-0.366,3.955-1.099c1.23-0.732,2.226-1.962,2.988-3.691h1.406
			c-0.382,1.084-0.909,2.117-1.582,3.098c-0.675,0.982-1.466,1.846-2.373,2.593c-0.909,0.747-1.89,1.34-2.944,1.78
			s-2.139,0.659-3.252,0.659c-1.026,0-2.015-0.176-2.967-0.527s-1.795-0.93-2.526-1.736c-0.732-0.805-1.326-1.853-1.78-3.142
			s-0.681-2.871-0.681-4.746c0-1.23,0.139-2.563,0.417-3.999c0.278-1.435,0.747-2.769,1.406-3.999s1.523-2.256,2.593-3.076
			c1.069-0.82,2.396-1.23,3.978-1.23c0.731,0,1.442,0.081,2.131,0.242c0.688,0.162,1.311,0.455,1.868,0.879
			c0.556,0.425,1.003,1.004,1.34,1.736C149.458,94.854,149.627,95.806,149.627,96.978z M140.047,102.954
			c2.08-0.322,3.728-1.055,4.943-2.197s1.824-2.549,1.824-4.219c0-1.113-0.191-1.912-0.571-2.395
			c-0.382-0.483-0.923-0.725-1.626-0.725c-0.763,0-1.429,0.293-2,0.879s-1.048,1.34-1.428,2.263
			c-0.381,0.923-0.667,1.949-0.857,3.076C140.142,100.764,140.047,101.871,140.047,102.954z"/>
		<path class="st1" d="M156.438,91.484v3.691c0.352-0.527,0.695-1.025,1.032-1.494c0.337-0.468,0.71-0.879,1.121-1.23
			c0.41-0.352,0.863-0.637,1.362-0.857c0.498-0.22,1.055-0.33,1.67-0.33c0.995,0,1.728,0.257,2.197,0.769
			c0.468,0.513,0.703,1.136,0.703,1.868c0,0.439-0.074,0.806-0.22,1.099c-0.147,0.293-0.323,0.527-0.527,0.703
			c-0.206,0.176-0.426,0.301-0.659,0.374c-0.235,0.073-0.439,0.11-0.615,0.11c-0.264,0-0.477-0.059-0.638-0.176
			c-0.161-0.117-0.322-0.242-0.483-0.374s-0.345-0.256-0.549-0.374c-0.205-0.117-0.469-0.176-0.791-0.176
			c-0.675,0-1.318,0.235-1.934,0.703c-0.615,0.469-1.172,0.967-1.67,1.494v16.171h-4.395V91.484H156.438z"/>
		<path class="st1" d="M192.472,91.484v14.941c0,0.352,0.014,0.755,0.044,1.208c0.028,0.455,0.109,0.887,0.241,1.296
			c0.132,0.411,0.337,0.755,0.615,1.033c0.278,0.279,0.682,0.417,1.208,0.417c0.234,0,0.491-0.029,0.77-0.088
			c0.278-0.058,0.505-0.117,0.681-0.176c0.029,0.147,0.051,0.279,0.066,0.396c0.015,0.118,0.021,0.25,0.021,0.396
			c0,0.879-0.337,1.568-1.011,2.065c-0.674,0.498-1.436,0.747-2.284,0.747c-0.909,0-1.729-0.314-2.461-0.945
			c-0.733-0.629-1.23-1.692-1.494-3.186c-0.439,1.143-1.158,2.117-2.153,2.922c-0.997,0.806-2.197,1.208-3.604,1.208
			c-0.879,0-1.766-0.183-2.659-0.549c-0.894-0.366-1.691-0.945-2.395-1.736s-1.282-1.816-1.736-3.076
			c-0.454-1.259-0.681-2.783-0.681-4.57c0-1.376,0.153-2.805,0.461-4.284s0.791-2.827,1.45-4.043
			c0.659-1.215,1.517-2.219,2.571-3.01s2.313-1.187,3.779-1.187c0.762,0,1.545,0.159,2.351,0.475s1.413,0.921,1.824,1.812v-2.067
			L192.472,91.484L192.472,91.484z M184.034,110.38c0.556,0,1.083-0.132,1.582-0.396c0.497-0.265,0.93-0.617,1.296-1.058
			s0.651-0.947,0.857-1.52c0.204-0.573,0.308-1.183,0.308-1.829V95.532c-0.206-0.5-0.514-0.94-0.923-1.322
			c-0.411-0.382-0.997-0.573-1.758-0.573c-0.938,0-1.729,0.316-2.373,0.948c-0.645,0.631-1.172,1.432-1.582,2.401
			c-0.411,0.97-0.711,2.049-0.901,3.238c-0.19,1.19-0.285,2.328-0.285,3.415c0,2.38,0.366,4.098,1.099,5.155
			C182.085,109.852,182.979,110.38,184.034,110.38z"/>
		<path class="st1" d="M70.483,143.866c0,0.791,0.066,1.479,0.198,2.065c0.132,0.587,0.286,1.077,0.461,1.473
			s0.344,0.71,0.505,0.944c0.161,0.235,0.286,0.425,0.374,0.571c-1.641,0-2.93-0.417-3.867-1.252
			c-0.938-0.835-1.406-2.116-1.406-3.846c0-1.464,0.374-2.841,1.121-4.131c0.747-1.288,1.758-2.409,3.032-3.361
			s2.769-1.706,4.482-2.263c1.713-0.557,3.537-0.835,5.471-0.835c1.729,0,3.23,0.213,4.504,0.637
			c1.274,0.425,2.329,1.004,3.164,1.736s1.457,1.567,1.868,2.504c0.41,0.938,0.615,1.905,0.615,2.9c0,1.114-0.293,2.22-0.879,3.318
			c-0.586,1.099-1.436,2.028-2.549,2.79c2.255,0.235,4.065,1.128,5.427,2.681c1.362,1.554,2.043,3.721,2.043,6.504
			c0,0.938-0.103,2.015-0.308,3.229c-0.206,1.217-0.579,2.374-1.121,3.473c-0.542,1.099-1.296,2.028-2.263,2.79
			s-2.197,1.143-3.691,1.143c-0.645,0-1.26-0.081-1.846-0.242c-0.586-0.161-1.106-0.396-1.56-0.702
			c-0.455-0.308-0.813-0.703-1.077-1.187s-0.396-1.033-0.396-1.648c0-0.176,0.015-0.417,0.044-0.725s0.073-0.564,0.132-0.77
			c0.41,0.645,0.923,1.092,1.538,1.341s1.187,0.373,1.714,0.373c0.732,0,1.34-0.204,1.824-0.615c0.483-0.41,0.857-0.938,1.121-1.582
			s0.446-1.354,0.549-2.132c0.102-0.775,0.154-1.545,0.154-2.307c0-2.783-0.532-4.79-1.597-6.021
			c-1.064-1.23-2.543-1.846-4.438-1.846c-0.35,0-0.788,0.016-1.312,0.044c-0.525,0.029-1.035,0.073-1.531,0.132v17.139h-4.79
			v-28.169l4.79-0.659v9.932h0.611c0.814,0,1.579-0.197,2.291-0.593c0.713-0.396,1.331-0.916,1.855-1.561
			c0.523-0.644,0.931-1.354,1.222-2.131c0.291-0.776,0.437-1.545,0.437-2.308c0-1.728-0.586-3.142-1.758-4.24
			c-1.172-1.099-2.916-1.647-5.229-1.647c-1.26,0-2.49,0.183-3.691,0.549s-2.263,0.923-3.186,1.67s-1.663,1.691-2.219,2.834
			C70.761,141.01,70.483,142.344,70.483,143.866z"/>
		<path class="st1" d="M113.681,144.218v14.941c0,0.293,0.014,0.659,0.044,1.099c0.028,0.439,0.109,0.872,0.241,1.297
			s0.33,0.791,0.594,1.099s0.629,0.461,1.099,0.461c1.435,0,2.489-1.597,3.163-4.79h1.626c-0.322,1.846-0.732,3.304-1.23,4.373
			s-1.025,1.883-1.582,2.438c-0.557,0.557-1.128,0.916-1.714,1.076c-0.586,0.161-1.113,0.242-1.581,0.242
			c-0.675,0-1.253-0.117-1.736-0.352s-0.894-0.542-1.23-0.923c-0.337-0.38-0.608-0.819-0.813-1.318
			c-0.206-0.498-0.367-1.025-0.483-1.582c-0.439,1.143-1.15,2.125-2.132,2.944c-0.981,0.82-2.175,1.23-3.581,1.23
			c-0.879,0-1.766-0.176-2.659-0.527s-1.699-0.93-2.417-1.735c-0.718-0.806-1.304-1.846-1.758-3.12
			c-0.455-1.275-0.681-2.835-0.681-4.681c0-1.348,0.154-2.753,0.461-4.219c0.308-1.465,0.798-2.797,1.472-3.999
			c0.673-1.201,1.538-2.197,2.593-2.988s2.329-1.187,3.823-1.187c0.352,0,0.725,0.037,1.12,0.108
			c0.396,0.072,0.776,0.194,1.143,0.366c0.366,0.173,0.71,0.41,1.033,0.712c0.321,0.303,0.585,0.669,0.791,1.101v-2.067
			L113.681,144.218L113.681,144.218z M105.463,163.114c0.439,0,0.886-0.124,1.34-0.374s0.864-0.588,1.23-1.014
			s0.666-0.933,0.901-1.521c0.233-0.587,0.352-1.219,0.352-1.895v-10.046c-0.206-0.47-0.521-0.902-0.945-1.299
			c-0.425-0.397-0.975-0.596-1.647-0.596c-0.938,0-1.743,0.316-2.417,0.948c-0.675,0.631-1.216,1.424-1.626,2.379
			c-0.411,0.954-0.711,1.997-0.901,3.128s-0.285,2.21-0.285,3.238c0,2.526,0.344,4.333,1.032,5.42S104.173,163.114,105.463,163.114z
			"/>
		<path class="st1" d="M123.216,135.43v23.729c0,0.293,0.015,0.659,0.044,1.099c0.028,0.439,0.109,0.872,0.241,1.297
			s0.33,0.791,0.594,1.099s0.63,0.461,1.099,0.461c1.435,0,2.489-1.597,3.164-4.79h1.626c-0.323,1.846-0.733,3.304-1.23,4.373
			c-0.499,1.069-1.026,1.883-1.582,2.438c-0.557,0.557-1.128,0.916-1.714,1.076c-0.587,0.161-1.114,0.242-1.582,0.242
			c-1.026,0-1.861-0.198-2.505-0.593c-0.645-0.396-1.158-0.901-1.538-1.517c-0.381-0.615-0.645-1.303-0.791-2.065
			c-0.147-0.762-0.22-1.494-0.22-2.197v-24.038L123.216,135.43z"/>
		<path class="st1" d="M132.707,135.43v23.729c0,0.293,0.015,0.659,0.044,1.099c0.028,0.439,0.109,0.872,0.241,1.297
			s0.33,0.791,0.594,1.099s0.63,0.461,1.099,0.461c1.435,0,2.489-1.597,3.164-4.79h1.626c-0.323,1.846-0.733,3.304-1.23,4.373
			c-0.499,1.069-1.026,1.883-1.582,2.438c-0.557,0.557-1.128,0.916-1.714,1.076c-0.587,0.161-1.114,0.242-1.582,0.242
			c-1.026,0-1.861-0.198-2.505-0.593c-0.645-0.396-1.158-0.901-1.538-1.517c-0.381-0.615-0.645-1.303-0.791-2.065
			c-0.147-0.762-0.22-1.494-0.22-2.197v-24.038L132.707,135.43z"/>
		<path class="st1" d="M145.802,143.998c1.143,0,2.123,0.176,2.944,0.527c0.819,0.352,1.494,0.843,2.021,1.473
			s0.944,1.369,1.252,2.219c0.308,0.851,0.534,1.758,0.682,2.725h0.264c1.23,0,2.357-0.248,3.383-0.747
			c1.025-0.498,1.904-1.127,2.637-1.89l0.659,1.187c-0.586,0.938-1.516,1.714-2.79,2.329s-2.586,1.04-3.933,1.274
			c0,0.293,0.007,0.587,0.021,0.879c0.015,0.293,0.022,0.601,0.022,0.923c0,3.604-0.659,6.432-1.978,8.481
			c-1.318,2.051-3.164,3.076-5.537,3.076c-0.967,0-1.941-0.176-2.923-0.527s-1.867-0.938-2.658-1.758
			c-0.791-0.819-1.429-1.874-1.912-3.164c-0.483-1.289-0.725-2.886-0.725-4.79c0-1.289,0.139-2.651,0.417-4.087
			c0.278-1.435,0.747-2.753,1.406-3.955c0.659-1.201,1.538-2.197,2.637-2.988S144.16,143.998,145.802,143.998z M146.264,163.114
			c1.545,0,2.682-0.769,3.41-2.307c0.729-1.539,1.094-3.714,1.094-6.526c0-0.176,0-0.352,0-0.527s-0.016-0.352-0.044-0.527
			c-0.851-0.059-1.458-0.248-1.824-0.571c-0.366-0.322-0.549-0.863-0.549-1.626c0-0.674,0.146-1.149,0.439-1.428
			c0.292-0.278,0.731-0.433,1.318-0.462c-0.351-1.041-0.795-1.763-1.334-2.165s-1.143-0.604-1.813-0.604
			c-0.903,0-1.668,0.302-2.294,0.904c-0.627,0.602-1.137,1.373-1.53,2.313c-0.394,0.94-0.678,1.976-0.853,3.106
			s-0.262,2.24-0.262,3.326c0,1.439,0.131,2.614,0.394,3.525c0.262,0.91,0.597,1.63,1.005,2.159
			c0.408,0.528,0.859,0.896,1.355,1.101C145.272,163.012,145.768,163.114,146.264,163.114z"/>
		<path class="st1" d="M164.215,143.998c1.143,0,2.123,0.176,2.944,0.527c0.819,0.352,1.494,0.843,2.021,1.473
			s0.944,1.369,1.252,2.219c0.308,0.851,0.534,1.758,0.682,2.725h0.264c1.23,0,2.357-0.248,3.383-0.747
			c1.025-0.498,1.904-1.127,2.637-1.89l0.659,1.187c-0.586,0.938-1.516,1.714-2.79,2.329s-2.586,1.04-3.933,1.274
			c0,0.293,0.007,0.587,0.021,0.879c0.015,0.293,0.022,0.601,0.022,0.923c0,3.604-0.659,6.432-1.978,8.481
			c-1.318,2.051-3.164,3.076-5.537,3.076c-0.967,0-1.941-0.176-2.923-0.527s-1.867-0.938-2.658-1.758
			c-0.791-0.819-1.429-1.874-1.912-3.164c-0.483-1.289-0.725-2.886-0.725-4.79c0-1.289,0.139-2.651,0.417-4.087
			c0.278-1.435,0.747-2.753,1.406-3.955c0.659-1.201,1.538-2.197,2.637-2.988S162.573,143.998,164.215,143.998z M164.677,163.114
			c1.545,0,2.682-0.769,3.41-2.307c0.729-1.539,1.094-3.714,1.094-6.526c0-0.176,0-0.352,0-0.527s-0.016-0.352-0.044-0.527
			c-0.851-0.059-1.458-0.248-1.824-0.571c-0.366-0.322-0.549-0.863-0.549-1.626c0-0.674,0.146-1.149,0.439-1.428
			c0.292-0.278,0.731-0.433,1.318-0.462c-0.351-1.041-0.795-1.763-1.334-2.165s-1.143-0.604-1.813-0.604
			c-0.903,0-1.668,0.302-2.294,0.904c-0.627,0.602-1.137,1.373-1.53,2.313c-0.394,0.94-0.678,1.976-0.853,3.106
			s-0.262,2.24-0.262,3.326c0,1.439,0.131,2.614,0.394,3.525c0.262,0.91,0.597,1.63,1.005,2.159
			c0.408,0.528,0.859,0.896,1.355,1.101C163.686,163.012,164.181,163.114,164.677,163.114z"/>
		<path class="st1" d="M178.979,144.218v3.34c0.439-0.791,0.886-1.428,1.34-1.911s0.916-0.842,1.385-1.077
			c0.468-0.233,0.915-0.388,1.34-0.461s0.827-0.11,1.209-0.11c1.318,0,2.38,0.25,3.186,0.747c0.806,0.499,1.413,1.136,1.824,1.912
			c0.409,0.776,0.681,1.633,0.813,2.57c0.132,0.938,0.198,1.846,0.198,2.725c0,0.967-0.037,2.139-0.11,3.516
			s-0.109,2.71-0.109,3.999c0,0.293,0.014,0.645,0.044,1.055c0.028,0.411,0.116,0.807,0.264,1.187
			c0.146,0.381,0.365,0.711,0.659,0.989c0.292,0.278,0.717,0.417,1.274,0.417c0.204,0,0.453-0.021,0.746-0.065
			s0.513-0.139,0.659-0.286v0.308c0,0.791-0.103,1.406-0.308,1.846s-0.454,0.776-0.746,1.011c-0.294,0.234-0.615,0.381-0.967,0.439
			s-0.659,0.088-0.923,0.088c-0.909,0-1.686-0.184-2.329-0.549c-0.646-0.366-1.18-0.857-1.604-1.473s-0.732-1.325-0.923-2.131
			s-0.285-1.663-0.285-2.571c0-0.264,0.007-0.754,0.021-1.473c0.015-0.717,0.029-1.486,0.044-2.307s0.029-1.597,0.044-2.329
			c0.015-0.731,0.022-1.245,0.022-1.538c0-0.938-0.074-1.714-0.22-2.329c-0.147-0.615-0.352-1.099-0.615-1.45
			s-0.564-0.6-0.901-0.747c-0.337-0.146-0.696-0.22-1.076-0.22c-0.908,0-1.692,0.367-2.352,1.099
			c-0.659,0.732-1.193,1.963-1.604,3.691v14.063h-4.395V144.22h4.395V144.218z"/>
		<path class="st1" d="M210.927,142.196c0,1.055-0.197,1.993-0.591,2.813s-0.882,1.575-1.464,2.264
			c-0.583,0.688-1.225,1.348-1.924,1.978s-1.348,1.274-1.944,1.934c-0.598,0.659-1.108,1.377-1.53,2.153
			c-0.423,0.776-0.663,1.662-0.721,2.658h-2.063c-0.09-0.439-0.135-0.85-0.135-1.23c0-1.201,0.322-2.277,0.967-3.229
			c0.644-0.952,1.362-1.896,2.153-2.835c0.791-0.938,1.508-1.918,2.153-2.944c0.644-1.024,0.967-2.226,0.967-3.604
			c0-0.879-0.14-1.626-0.418-2.241s-0.637-1.105-1.076-1.472s-0.938-0.638-1.494-0.813c-0.557-0.176-1.114-0.264-1.67-0.264
			c-0.527,0-1.033,0.088-1.517,0.264s-0.908,0.418-1.274,0.726s-0.666,0.674-0.9,1.099c-0.235,0.425-0.352,0.9-0.352,1.428
			c0,0.646,0.292,1.334,0.879,2.065c0.586,0.733,1.522,1.202,2.813,1.406c-0.235,0.615-0.608,1.077-1.121,1.385
			s-1.076,0.461-1.691,0.461c-0.499,0-1.004-0.095-1.517-0.285s-0.974-0.483-1.384-0.879c-0.411-0.396-0.74-0.886-0.989-1.473
			c-0.249-0.585-0.373-1.259-0.373-2.021c0-0.703,0.139-1.413,0.417-2.131s0.726-1.369,1.341-1.956
			c0.615-0.585,1.421-1.068,2.417-1.45c0.995-0.38,2.226-0.57,3.691-0.57c1.406,0,2.629,0.176,3.669,0.526
			c1.04,0.352,1.912,0.835,2.615,1.45s1.223,1.334,1.56,2.153C210.758,140.381,210.927,141.26,210.927,142.196z M198.798,163.51
			c0-0.791,0.278-1.479,0.835-2.065c0.556-0.586,1.245-0.879,2.065-0.879c0.791,0,1.479,0.293,2.065,0.879
			c0.586,0.587,0.879,1.274,0.879,2.065c0,0.82-0.293,1.509-0.879,2.065c-0.587,0.557-1.274,0.835-2.065,0.835
			c-0.82,0-1.51-0.278-2.065-0.835C199.076,165.019,198.798,164.33,198.798,163.51z"/>
	</g>
	<g>
		<path class="st2" d="M78.986,82.629V97.57c1.281,0,2.381-0.271,3.298-0.813s1.667-1.237,2.25-2.087s1.011-1.809,1.288-2.878
			s0.416-2.131,0.416-3.186c0-0.937-0.096-1.904-0.286-2.9c-0.191-0.996-0.593-1.912-1.208-2.747s-1.494-1.523-2.637-2.065
			s-2.666-0.813-4.57-0.813c-1.29,0-2.505,0.198-3.647,0.593c-1.143,0.395-2.131,0.966-2.966,1.713s-1.494,1.67-1.978,2.769
			s-0.725,2.366-0.725,3.801c0,0.909,0.073,1.67,0.22,2.285c0.146,0.615,0.322,1.128,0.527,1.538
			c0.205,0.411,0.41,0.725,0.615,0.945c0.205,0.22,0.366,0.374,0.483,0.461c-1.641,0-2.93-0.41-3.867-1.23
			c-0.938-0.82-1.406-2.182-1.406-4.087c0-1.406,0.366-2.731,1.099-3.977c0.732-1.245,1.714-2.343,2.944-3.296
			c1.23-0.952,2.651-1.706,4.263-2.263c1.611-0.556,3.31-0.835,5.097-0.835c1.934,0,3.662,0.242,5.186,0.725
			c1.523,0.483,2.797,1.157,3.823,2.021c1.025,0.865,1.809,1.868,2.351,3.01c0.542,1.143,0.813,2.373,0.813,3.691
			c0,1.23-0.219,2.498-0.657,3.801c-0.438,1.304-1.095,2.483-1.97,3.538s-1.962,1.927-3.261,2.615
			c-1.299,0.688-2.809,1.033-4.53,1.033h-0.963v12.524h-4.79V83.288L78.986,82.629z"/>
		<path class="st2" d="M96.827,89.484v3.691c0.352-0.527,0.695-1.025,1.033-1.494c0.336-0.468,0.709-0.879,1.121-1.23
			c0.41-0.352,0.863-0.637,1.362-0.857c0.498-0.22,1.055-0.33,1.67-0.33c0.995,0,1.728,0.257,2.197,0.769
			c0.468,0.513,0.703,1.136,0.703,1.868c0,0.439-0.074,0.806-0.22,1.099c-0.147,0.293-0.323,0.527-0.527,0.703
			c-0.206,0.176-0.426,0.301-0.659,0.374c-0.235,0.073-0.439,0.11-0.615,0.11c-0.264,0-0.477-0.059-0.638-0.176
			c-0.161-0.117-0.322-0.242-0.483-0.374s-0.345-0.256-0.549-0.374c-0.205-0.117-0.469-0.176-0.791-0.176
			c-0.675,0-1.318,0.235-1.934,0.703c-0.615,0.469-1.172,0.967-1.67,1.494v16.171h-4.395V89.484H96.827z"/>
		<path class="st2" d="M120.953,94.978c0,2.051-0.843,3.765-2.527,5.142s-4.021,2.227-7.009,2.548
			c0.116,1.172,0.329,2.125,0.637,2.856c0.308,0.733,0.682,1.312,1.121,1.736c0.439,0.425,0.944,0.718,1.516,0.879
			c0.571,0.162,1.165,0.242,1.78,0.242c1.406,0,2.725-0.366,3.955-1.099c1.23-0.732,2.226-1.962,2.988-3.691h1.406
			c-0.382,1.084-0.909,2.117-1.582,3.098c-0.675,0.982-1.466,1.846-2.373,2.593c-0.909,0.747-1.89,1.34-2.944,1.78
			s-2.139,0.659-3.252,0.659c-1.026,0-2.015-0.176-2.967-0.527s-1.795-0.93-2.526-1.736c-0.732-0.805-1.326-1.853-1.78-3.142
			s-0.681-2.871-0.681-4.746c0-1.23,0.139-2.563,0.417-3.999c0.278-1.435,0.747-2.769,1.406-3.999s1.523-2.256,2.593-3.076
			c1.069-0.82,2.396-1.23,3.978-1.23c0.731,0,1.442,0.081,2.131,0.242c0.688,0.162,1.311,0.455,1.868,0.879
			c0.556,0.425,1.003,1.004,1.34,1.736C120.784,92.854,120.953,93.806,120.953,94.978z M111.373,100.954
			c2.08-0.322,3.728-1.055,4.943-2.197s1.824-2.549,1.824-4.219c0-1.113-0.191-1.912-0.571-2.395
			c-0.382-0.483-0.923-0.725-1.626-0.725c-0.763,0-1.429,0.293-2,0.879s-1.048,1.34-1.428,2.263
			c-0.381,0.923-0.667,1.949-0.857,3.076C111.468,98.764,111.373,99.871,111.373,100.954z"/>
		<path class="st2" d="M127.764,89.484h3.56v1.582h-3.56v23.916c0,1.55-0.154,2.808-0.462,3.774
			c-0.308,0.965-0.71,1.726-1.208,2.282c-0.499,0.555-1.077,0.928-1.736,1.119c-0.659,0.189-1.355,0.285-2.087,0.285
			c-1.582,0-2.746-0.366-3.493-1.098c-0.747-0.733-1.121-1.788-1.121-3.164c0-0.733,0.169-1.406,0.506-2.021s0.776-1.18,1.318-1.692
			c0.542-0.513,1.149-0.967,1.823-1.362s1.362-0.74,2.065-1.033V86.145c0-2.549,0.6-4.46,1.802-5.734
			c1.201-1.274,2.739-1.912,4.614-1.912c0.879,0,1.685,0.132,2.417,0.396c0.731,0.264,1.376,0.674,1.934,1.23
			c0.556,0.557,0.988,1.245,1.296,2.065c0.308,0.821,0.462,1.788,0.462,2.9h-1.714c-0.176-1.171-0.491-2.094-0.945-2.769
			c-0.454-0.673-1.208-1.011-2.263-1.011c-0.703,0-1.26,0.154-1.67,0.461c-0.411,0.308-0.732,0.725-0.967,1.252
			s-0.389,1.165-0.462,1.912s-0.109,1.56-0.109,2.439L127.764,89.484L127.764,89.484z M121.392,120.158
			c0.85,0,1.391-0.455,1.626-1.362c0.234-0.909,0.352-2.153,0.352-3.735v-1.362c-1.318,0.644-2.314,1.347-2.988,2.109
			c-0.674,0.761-1.011,1.508-1.011,2.241c0,0.585,0.191,1.083,0.571,1.494C120.322,119.952,120.806,120.158,121.392,120.158z"/>
		<path class="st2" d="M147.627,94.978c0,2.051-0.843,3.765-2.527,5.142s-4.021,2.227-7.009,2.548
			c0.116,1.172,0.329,2.125,0.637,2.856c0.308,0.733,0.682,1.312,1.121,1.736c0.439,0.425,0.944,0.718,1.516,0.879
			c0.571,0.162,1.165,0.242,1.78,0.242c1.406,0,2.725-0.366,3.955-1.099c1.23-0.732,2.226-1.962,2.988-3.691h1.406
			c-0.382,1.084-0.909,2.117-1.582,3.098c-0.675,0.982-1.466,1.846-2.373,2.593c-0.909,0.747-1.89,1.34-2.944,1.78
			s-2.139,0.659-3.252,0.659c-1.026,0-2.015-0.176-2.967-0.527s-1.795-0.93-2.526-1.736c-0.732-0.805-1.326-1.853-1.78-3.142
			s-0.681-2.871-0.681-4.746c0-1.23,0.139-2.563,0.417-3.999c0.278-1.435,0.747-2.769,1.406-3.999s1.523-2.256,2.593-3.076
			c1.069-0.82,2.396-1.23,3.978-1.23c0.731,0,1.442,0.081,2.131,0.242c0.688,0.162,1.311,0.455,1.868,0.879
			c0.556,0.425,1.003,1.004,1.34,1.736C147.458,92.854,147.627,93.806,147.627,94.978z M138.047,100.954
			c2.08-0.322,3.728-1.055,4.943-2.197s1.824-2.549,1.824-4.219c0-1.113-0.191-1.912-0.571-2.395
			c-0.382-0.483-0.923-0.725-1.626-0.725c-0.763,0-1.429,0.293-2,0.879s-1.048,1.34-1.428,2.263
			c-0.381,0.923-0.667,1.949-0.857,3.076C138.142,98.764,138.047,99.871,138.047,100.954z"/>
		<path class="st2" d="M154.438,89.484v3.691c0.352-0.527,0.695-1.025,1.032-1.494c0.337-0.468,0.71-0.879,1.121-1.23
			c0.41-0.352,0.863-0.637,1.362-0.857c0.498-0.22,1.055-0.33,1.67-0.33c0.995,0,1.728,0.257,2.197,0.769
			c0.468,0.513,0.703,1.136,0.703,1.868c0,0.439-0.074,0.806-0.22,1.099c-0.147,0.293-0.323,0.527-0.527,0.703
			c-0.206,0.176-0.426,0.301-0.659,0.374c-0.235,0.073-0.439,0.11-0.615,0.11c-0.264,0-0.477-0.059-0.638-0.176
			c-0.161-0.117-0.322-0.242-0.483-0.374s-0.345-0.256-0.549-0.374c-0.205-0.117-0.469-0.176-0.791-0.176
			c-0.675,0-1.318,0.235-1.934,0.703c-0.615,0.469-1.172,0.967-1.67,1.494v16.171h-4.395V89.484H154.438z"/>
		<path class="st2" d="M190.472,89.484v14.941c0,0.352,0.014,0.755,0.044,1.208c0.028,0.455,0.109,0.887,0.241,1.296
			c0.132,0.411,0.337,0.755,0.615,1.033c0.278,0.279,0.682,0.417,1.208,0.417c0.234,0,0.491-0.029,0.77-0.088
			c0.278-0.058,0.505-0.117,0.681-0.176c0.029,0.147,0.051,0.279,0.066,0.396c0.015,0.118,0.021,0.25,0.021,0.396
			c0,0.879-0.337,1.568-1.011,2.065c-0.674,0.498-1.436,0.747-2.284,0.747c-0.909,0-1.729-0.314-2.461-0.945
			c-0.733-0.629-1.23-1.692-1.494-3.186c-0.439,1.143-1.158,2.117-2.153,2.922c-0.997,0.806-2.197,1.208-3.604,1.208
			c-0.879,0-1.766-0.183-2.659-0.549c-0.894-0.366-1.691-0.945-2.395-1.736s-1.282-1.816-1.736-3.076
			c-0.454-1.259-0.681-2.783-0.681-4.57c0-1.376,0.153-2.805,0.461-4.284s0.791-2.827,1.45-4.043
			c0.659-1.215,1.517-2.219,2.571-3.01s2.313-1.187,3.779-1.187c0.762,0,1.545,0.159,2.351,0.475s1.413,0.921,1.824,1.812v-2.067
			L190.472,89.484L190.472,89.484z M182.034,108.38c0.556,0,1.083-0.132,1.582-0.396c0.497-0.265,0.93-0.617,1.296-1.058
			s0.651-0.947,0.857-1.52c0.204-0.573,0.308-1.183,0.308-1.829V93.532c-0.206-0.5-0.514-0.94-0.923-1.322
			c-0.411-0.382-0.997-0.573-1.758-0.573c-0.938,0-1.729,0.316-2.373,0.948c-0.645,0.631-1.172,1.432-1.582,2.401
			c-0.411,0.97-0.711,2.049-0.901,3.238c-0.19,1.19-0.285,2.328-0.285,3.415c0,2.38,0.366,4.098,1.099,5.155
			C180.085,107.852,180.979,108.38,182.034,108.38z"/>
		<path class="st2" d="M68.483,141.866c0,0.791,0.066,1.479,0.198,2.065c0.132,0.587,0.286,1.077,0.461,1.473
			s0.344,0.71,0.505,0.944c0.161,0.235,0.286,0.425,0.374,0.571c-1.641,0-2.93-0.417-3.867-1.252
			c-0.938-0.835-1.406-2.116-1.406-3.846c0-1.464,0.374-2.841,1.121-4.131c0.747-1.288,1.758-2.409,3.032-3.361
			s2.769-1.706,4.482-2.263c1.713-0.557,3.537-0.835,5.471-0.835c1.729,0,3.23,0.213,4.504,0.637
			c1.274,0.425,2.329,1.004,3.164,1.736s1.457,1.567,1.868,2.504c0.41,0.938,0.615,1.905,0.615,2.9c0,1.114-0.293,2.22-0.879,3.318
			c-0.586,1.099-1.436,2.028-2.549,2.79c2.255,0.235,4.065,1.128,5.427,2.681c1.362,1.554,2.043,3.721,2.043,6.504
			c0,0.938-0.103,2.015-0.308,3.229c-0.206,1.217-0.579,2.374-1.121,3.473c-0.542,1.099-1.296,2.028-2.263,2.79
			s-2.197,1.143-3.691,1.143c-0.645,0-1.26-0.081-1.846-0.242c-0.586-0.161-1.106-0.396-1.56-0.702
			c-0.455-0.308-0.813-0.703-1.077-1.187s-0.396-1.033-0.396-1.648c0-0.176,0.015-0.417,0.044-0.725s0.073-0.564,0.132-0.77
			c0.41,0.645,0.923,1.092,1.538,1.341s1.187,0.373,1.714,0.373c0.732,0,1.34-0.204,1.824-0.615c0.483-0.41,0.857-0.938,1.121-1.582
			s0.446-1.354,0.549-2.132c0.102-0.775,0.154-1.545,0.154-2.307c0-2.783-0.532-4.79-1.597-6.021
			c-1.064-1.23-2.543-1.846-4.438-1.846c-0.35,0-0.788,0.016-1.312,0.044c-0.525,0.029-1.035,0.073-1.531,0.132v17.139h-4.79
			v-28.169l4.79-0.659v9.932h0.611c0.814,0,1.579-0.197,2.291-0.593c0.713-0.396,1.331-0.916,1.855-1.561
			c0.523-0.644,0.931-1.354,1.222-2.131c0.291-0.776,0.437-1.545,0.437-2.308c0-1.728-0.586-3.142-1.758-4.24
			c-1.172-1.099-2.916-1.647-5.229-1.647c-1.26,0-2.49,0.183-3.691,0.549s-2.263,0.923-3.186,1.67s-1.663,1.691-2.219,2.834
			C68.761,139.01,68.483,140.344,68.483,141.866z"/>
		<path class="st2" d="M111.681,142.218v14.941c0,0.293,0.014,0.659,0.044,1.099c0.028,0.439,0.109,0.872,0.241,1.297
			s0.33,0.791,0.594,1.099s0.629,0.461,1.099,0.461c1.435,0,2.489-1.597,3.163-4.79h1.626c-0.322,1.846-0.732,3.304-1.23,4.373
			s-1.025,1.883-1.582,2.438c-0.557,0.557-1.128,0.916-1.714,1.076c-0.586,0.161-1.113,0.242-1.581,0.242
			c-0.675,0-1.253-0.117-1.736-0.352s-0.894-0.542-1.23-0.923c-0.337-0.38-0.608-0.819-0.813-1.318
			c-0.206-0.498-0.367-1.025-0.483-1.582c-0.439,1.143-1.15,2.125-2.132,2.944c-0.981,0.82-2.175,1.23-3.581,1.23
			c-0.879,0-1.766-0.176-2.659-0.527s-1.699-0.93-2.417-1.735c-0.718-0.806-1.304-1.846-1.758-3.12
			c-0.455-1.275-0.681-2.835-0.681-4.681c0-1.348,0.154-2.753,0.461-4.219c0.308-1.465,0.798-2.797,1.472-3.999
			c0.673-1.201,1.538-2.197,2.593-2.988s2.329-1.187,3.823-1.187c0.352,0,0.725,0.037,1.12,0.108
			c0.396,0.072,0.776,0.194,1.143,0.366c0.366,0.173,0.71,0.41,1.033,0.712c0.321,0.303,0.585,0.669,0.791,1.101v-2.067
			L111.681,142.218L111.681,142.218z M103.463,161.114c0.439,0,0.886-0.124,1.34-0.374s0.864-0.588,1.23-1.014
			s0.666-0.933,0.901-1.521c0.233-0.587,0.352-1.219,0.352-1.895v-10.046c-0.206-0.47-0.521-0.902-0.945-1.299
			c-0.425-0.397-0.975-0.596-1.647-0.596c-0.938,0-1.743,0.316-2.417,0.948c-0.675,0.631-1.216,1.424-1.626,2.379
			c-0.411,0.954-0.711,1.997-0.901,3.128s-0.285,2.21-0.285,3.238c0,2.526,0.344,4.333,1.032,5.42S102.173,161.114,103.463,161.114z
			"/>
		<path class="st2" d="M121.216,133.43v23.729c0,0.293,0.015,0.659,0.044,1.099c0.028,0.439,0.109,0.872,0.241,1.297
			s0.33,0.791,0.594,1.099s0.63,0.461,1.099,0.461c1.435,0,2.489-1.597,3.164-4.79h1.626c-0.323,1.846-0.733,3.304-1.23,4.373
			c-0.499,1.069-1.026,1.883-1.582,2.438c-0.557,0.557-1.128,0.916-1.714,1.076c-0.587,0.161-1.114,0.242-1.582,0.242
			c-1.026,0-1.861-0.198-2.505-0.593c-0.645-0.396-1.158-0.901-1.538-1.517c-0.381-0.615-0.645-1.303-0.791-2.065
			c-0.147-0.762-0.22-1.494-0.22-2.197v-24.038L121.216,133.43z"/>
		<path class="st2" d="M130.707,133.43v23.729c0,0.293,0.015,0.659,0.044,1.099c0.028,0.439,0.109,0.872,0.241,1.297
			s0.33,0.791,0.594,1.099s0.63,0.461,1.099,0.461c1.435,0,2.489-1.597,3.164-4.79h1.626c-0.323,1.846-0.733,3.304-1.23,4.373
			c-0.499,1.069-1.026,1.883-1.582,2.438c-0.557,0.557-1.128,0.916-1.714,1.076c-0.587,0.161-1.114,0.242-1.582,0.242
			c-1.026,0-1.861-0.198-2.505-0.593c-0.645-0.396-1.158-0.901-1.538-1.517c-0.381-0.615-0.645-1.303-0.791-2.065
			c-0.147-0.762-0.22-1.494-0.22-2.197v-24.038L130.707,133.43z"/>
		<path class="st2" d="M143.802,141.998c1.143,0,2.123,0.176,2.944,0.527c0.819,0.352,1.494,0.843,2.021,1.473
			s0.944,1.369,1.252,2.219c0.308,0.851,0.534,1.758,0.682,2.725h0.264c1.23,0,2.357-0.248,3.383-0.747
			c1.025-0.498,1.904-1.127,2.637-1.89l0.659,1.187c-0.586,0.938-1.516,1.714-2.79,2.329s-2.586,1.04-3.933,1.274
			c0,0.293,0.007,0.587,0.021,0.879c0.015,0.293,0.022,0.601,0.022,0.923c0,3.604-0.659,6.432-1.978,8.481
			c-1.318,2.051-3.164,3.076-5.537,3.076c-0.967,0-1.941-0.176-2.923-0.527s-1.867-0.938-2.658-1.758
			c-0.791-0.819-1.429-1.874-1.912-3.164c-0.483-1.289-0.725-2.886-0.725-4.79c0-1.289,0.139-2.651,0.417-4.087
			c0.278-1.435,0.747-2.753,1.406-3.955c0.659-1.201,1.538-2.197,2.637-2.988S142.16,141.998,143.802,141.998z M144.264,161.114
			c1.545,0,2.682-0.769,3.41-2.307c0.729-1.539,1.094-3.714,1.094-6.526c0-0.176,0-0.352,0-0.527s-0.016-0.352-0.044-0.527
			c-0.851-0.059-1.458-0.248-1.824-0.571c-0.366-0.322-0.549-0.863-0.549-1.626c0-0.674,0.146-1.149,0.439-1.428
			c0.292-0.278,0.731-0.433,1.318-0.462c-0.351-1.041-0.795-1.763-1.334-2.165s-1.143-0.604-1.813-0.604
			c-0.903,0-1.668,0.302-2.294,0.904c-0.627,0.602-1.137,1.373-1.53,2.313c-0.394,0.94-0.678,1.976-0.853,3.106
			s-0.262,2.24-0.262,3.326c0,1.439,0.131,2.614,0.394,3.525c0.262,0.91,0.597,1.63,1.005,2.159
			c0.408,0.528,0.859,0.896,1.355,1.101C143.272,161.012,143.768,161.114,144.264,161.114z"/>
		<path class="st2" d="M162.215,141.998c1.143,0,2.123,0.176,2.944,0.527c0.819,0.352,1.494,0.843,2.021,1.473
			s0.944,1.369,1.252,2.219c0.308,0.851,0.534,1.758,0.682,2.725h0.264c1.23,0,2.357-0.248,3.383-0.747
			c1.025-0.498,1.904-1.127,2.637-1.89l0.659,1.187c-0.586,0.938-1.516,1.714-2.79,2.329s-2.586,1.04-3.933,1.274
			c0,0.293,0.007,0.587,0.021,0.879c0.015,0.293,0.022,0.601,0.022,0.923c0,3.604-0.659,6.432-1.978,8.481
			c-1.318,2.051-3.164,3.076-5.537,3.076c-0.967,0-1.941-0.176-2.923-0.527s-1.867-0.938-2.658-1.758
			c-0.791-0.819-1.429-1.874-1.912-3.164c-0.483-1.289-0.725-2.886-0.725-4.79c0-1.289,0.139-2.651,0.417-4.087
			c0.278-1.435,0.747-2.753,1.406-3.955c0.659-1.201,1.538-2.197,2.637-2.988S160.573,141.998,162.215,141.998z M162.677,161.114
			c1.545,0,2.682-0.769,3.41-2.307c0.729-1.539,1.094-3.714,1.094-6.526c0-0.176,0-0.352,0-0.527s-0.016-0.352-0.044-0.527
			c-0.851-0.059-1.458-0.248-1.824-0.571c-0.366-0.322-0.549-0.863-0.549-1.626c0-0.674,0.146-1.149,0.439-1.428
			c0.292-0.278,0.731-0.433,1.318-0.462c-0.351-1.041-0.795-1.763-1.334-2.165s-1.143-0.604-1.813-0.604
			c-0.903,0-1.668,0.302-2.294,0.904c-0.627,0.602-1.137,1.373-1.53,2.313c-0.394,0.94-0.678,1.976-0.853,3.106
			s-0.262,2.24-0.262,3.326c0,1.439,0.131,2.614,0.394,3.525c0.262,0.91,0.597,1.63,1.005,2.159
			c0.408,0.528,0.859,0.896,1.355,1.101C161.686,161.012,162.181,161.114,162.677,161.114z"/>
		<path class="st2" d="M176.979,142.218v3.34c0.439-0.791,0.886-1.428,1.34-1.911s0.916-0.842,1.385-1.077
			c0.468-0.233,0.915-0.388,1.34-0.461s0.827-0.11,1.209-0.11c1.318,0,2.38,0.25,3.186,0.747c0.806,0.499,1.413,1.136,1.824,1.912
			c0.409,0.776,0.681,1.633,0.813,2.57c0.132,0.938,0.198,1.846,0.198,2.725c0,0.967-0.037,2.139-0.11,3.516
			s-0.109,2.71-0.109,3.999c0,0.293,0.014,0.645,0.044,1.055c0.028,0.411,0.116,0.807,0.264,1.187
			c0.146,0.381,0.365,0.711,0.659,0.989c0.292,0.278,0.717,0.417,1.274,0.417c0.204,0,0.453-0.021,0.746-0.065
			s0.513-0.139,0.659-0.286v0.308c0,0.791-0.103,1.406-0.308,1.846s-0.454,0.776-0.746,1.011c-0.294,0.234-0.615,0.381-0.967,0.439
			s-0.659,0.088-0.923,0.088c-0.909,0-1.686-0.184-2.329-0.549c-0.646-0.366-1.18-0.857-1.604-1.473s-0.732-1.325-0.923-2.131
			s-0.285-1.663-0.285-2.571c0-0.264,0.007-0.754,0.021-1.473c0.015-0.717,0.029-1.486,0.044-2.307s0.029-1.597,0.044-2.329
			c0.015-0.731,0.022-1.245,0.022-1.538c0-0.938-0.074-1.714-0.22-2.329c-0.147-0.615-0.352-1.099-0.615-1.45
			s-0.564-0.6-0.901-0.747c-0.337-0.146-0.696-0.22-1.076-0.22c-0.908,0-1.692,0.367-2.352,1.099
			c-0.659,0.732-1.193,1.963-1.604,3.691v14.063h-4.395V142.22h4.395V142.218z"/>
		<path class="st2" d="M208.927,140.196c0,1.055-0.197,1.993-0.591,2.813s-0.882,1.575-1.464,2.264
			c-0.583,0.688-1.225,1.348-1.924,1.978s-1.348,1.274-1.944,1.934c-0.598,0.659-1.108,1.377-1.53,2.153
			c-0.423,0.776-0.663,1.662-0.721,2.658h-2.063c-0.09-0.439-0.135-0.85-0.135-1.23c0-1.201,0.322-2.277,0.967-3.229
			c0.644-0.952,1.362-1.896,2.153-2.835c0.791-0.938,1.508-1.918,2.153-2.944c0.644-1.024,0.967-2.226,0.967-3.604
			c0-0.879-0.14-1.626-0.418-2.241s-0.637-1.105-1.076-1.472s-0.938-0.638-1.494-0.813c-0.557-0.176-1.114-0.264-1.67-0.264
			c-0.527,0-1.033,0.088-1.517,0.264s-0.908,0.418-1.274,0.726s-0.666,0.674-0.9,1.099c-0.235,0.425-0.352,0.9-0.352,1.428
			c0,0.646,0.292,1.334,0.879,2.065c0.586,0.733,1.522,1.202,2.813,1.406c-0.235,0.615-0.608,1.077-1.121,1.385
			s-1.076,0.461-1.691,0.461c-0.499,0-1.004-0.095-1.517-0.285s-0.974-0.483-1.384-0.879c-0.411-0.396-0.74-0.886-0.989-1.473
			c-0.249-0.585-0.373-1.259-0.373-2.021c0-0.703,0.139-1.413,0.417-2.131s0.726-1.369,1.341-1.956
			c0.615-0.585,1.421-1.068,2.417-1.45c0.995-0.38,2.226-0.57,3.691-0.57c1.406,0,2.629,0.176,3.669,0.526
			c1.04,0.352,1.912,0.835,2.615,1.45s1.223,1.334,1.56,2.153C208.758,138.381,208.927,139.26,208.927,140.196z M196.798,161.51
			c0-0.791,0.278-1.479,0.835-2.065c0.556-0.586,1.245-0.879,2.065-0.879c0.791,0,1.479,0.293,2.065,0.879
			c0.586,0.587,0.879,1.274,0.879,2.065c0,0.82-0.293,1.509-0.879,2.065c-0.587,0.557-1.274,0.835-2.065,0.835
			c-0.82,0-1.51-0.278-2.065-0.835C197.076,163.019,196.798,162.33,196.798,161.51z"/>
	</g>
</g>
</svg>
