<?xml version="1.0" encoding="utf-8"?>
<!-- Generator: Adobe Illustrator 18.0.0, SVG Export Plug-In . SVG Version: 6.00 Build 0)  -->
<!DOCTYPE svg PUBLIC "-//W3C//DTD SVG 1.1//EN" "http://www.w3.org/Graphics/SVG/1.1/DTD/svg11.dtd">
<svg version="1.1" id="Layer_1" xmlns="http://www.w3.org/2000/svg" xmlns:xlink="http://www.w3.org/1999/xlink" x="0px" y="0px"
	 width="102px" height="56px" viewBox="99 97 102 56" style="enable-background:new 99 97 102 56;" xml:space="preserve">
<style type="text/css">
	.st0{fill:#FFFFFF;}
	.st1{fill:#E6E6E6;}
</style>
<g>
	<path class="st0" d="M120.652,133.476c0,2.556,1.985,4.63,4.437,4.63h50.566c2.45,0,4.436-2.074,4.436-4.63
		c0-2.563-1.986-4.634-4.436-4.634h-0.662c0.124-0.555,0.196-1.123,0.196-1.706c0-5.16-5.064-9.342-11.31-9.342
		c-1.569,0-3.061,0.262-4.417,0.737c-1.986-4.049-6.786-6.91-12.403-6.91c-7.39,0-13.382,4.951-13.382,11.055
		c0,0.368,0.025,0.73,0.068,1.086c-0.872-0.601-1.981-0.98-3.205-0.98c-2.769,0-5.015,1.856-5.015,4.146
		c0,0.693,0.226,1.338,0.594,1.914h-1.032C122.637,128.842,120.652,130.912,120.652,133.476z"/>
	<g>
		<path class="st1" d="M147.059,111.621c-7.39,0-13.382,4.951-13.382,11.055c0,0.368,0.025,0.73,0.068,1.086
			c-0.872-0.601-1.981-0.98-3.205-0.98c-2.769,0-5.015,1.856-5.015,4.146c0,0.693,0.226,1.338,0.594,1.914h-1.032
			c-2.451,0-4.437,2.07-4.437,4.634c0,2.556,1.985,4.63,4.437,4.63h25.284v-26.137C149.311,111.746,148.204,111.621,147.059,111.621
			z"/>
	</g>
</g>
</svg>
