<?xml version="1.0" encoding="utf-8"?>
<!-- Generator: Adobe Illustrator 18.0.0, SVG Export Plug-In . SVG Version: 6.00 Build 0)  -->
<!DOCTYPE svg PUBLIC "-//W3C//DTD SVG 1.1//EN" "http://www.w3.org/Graphics/SVG/1.1/DTD/svg11.dtd">
<svg version="1.1" id="Layer_1" xmlns="http://www.w3.org/2000/svg" xmlns:xlink="http://www.w3.org/1999/xlink" x="0px" y="0px"
	 width="300px" height="250px" viewBox="0 0 300 250" style="enable-background:new 0 0 300 250;" xml:space="preserve">
<style type="text/css">
	.st0{fill:#FFFFFF;}
	.st1{fill:#D1D3D4;}
</style>
<g id="plane">
	<path class="st0" d="M110.72,223.45l-20.362-34.766c-4.699,2.864-7.571,4.215-8.099,3.684c-0.535-0.549,0.829-3.413,3.68-8.105
		l-34.766-20.362l50.003-2.158c11.524-16.185,27.413-37.348,45.399-60.277c0.495-0.63,0.975-1.194,1.469-1.806L65.556,34.328
		l24.16,1.526l24.885,10.936c3.82-5.431,8.909-7.681,11.722-4.887c2.181,2.221,1.226,5.873-1.943,9.195l19.853,8.738
		c3.861-5.545,8.986-7.889,11.842-5.034c2.227,2.233,1.22,5.957-2.053,9.319l18.211,8.021
		c29.275-29.857,56.315-45.485,66.039-35.811c9.688,9.726-5.942,36.794-35.803,66.043l8.027,18.228
		c3.362-3.269,7.081-4.282,9.339-2.039c2.821,2.833,0.486,7.969-5.04,11.83l8.734,19.839c3.315-3.172,6.968-4.132,9.205-1.915
		c2.787,2.776,0.507,7.865-4.914,11.694l10.943,24.912l1.54,24.154l-65.368-82.496c-0.596,0.503-1.171,0.989-1.795,1.472
		c-22.908,17.993-44.092,33.876-60.259,45.407L110.72,223.45z"/>
	<path class="st1" d="M199.894,158.084l40.411,50.991l-1.54-24.154l-10.943-24.912c5.421-3.829,7.701-8.917,4.914-11.694
		c-2.237-2.217-5.89-1.257-9.205,1.915l-8.734-19.839c5.526-3.861,7.861-8.997,5.04-11.83c-2.258-2.244-5.977-1.23-9.339,2.039
		l-8.027-18.228c29.86-29.249,45.49-56.317,35.803-66.043c-0.13-0.134-0.282-0.245-0.43-0.371L82.191,191.605
		c-0.061,0.373-0.056,0.634,0.067,0.764c0.528,0.531,3.4-0.821,8.099-3.684l20.362,34.766l2.162-49.992
		c16.167-11.532,37.352-27.414,60.259-45.407c0.624-0.482,1.199-0.969,1.795-1.472L199.894,158.084"/>
</g>
</svg>
