<?xml version="1.0" encoding="utf-8"?>
<!-- Generator: Adobe Illustrator 18.0.0, SVG Export Plug-In . SVG Version: 6.00 Build 0)  -->
<!DOCTYPE svg PUBLIC "-//W3C//DTD SVG 1.1//EN" "http://www.w3.org/Graphics/SVG/1.1/DTD/svg11.dtd">
<svg version="1.1" id="Layer_1" xmlns="http://www.w3.org/2000/svg" xmlns:xlink="http://www.w3.org/1999/xlink" x="0px" y="0px"
	 width="72px" height="90px" viewBox="114 80 72 90" style="enable-background:new 114 80 72 90;" xml:space="preserve">
<style type="text/css">
	.st0{fill:#FCAD00;}
	.st1{fill:#FDCB1A;}
	.st2{fill:#FFFFFF;}
	.st3{fill:#754C24;}
	.st4{fill:none;stroke:#754C24;stroke-width:1.1813;stroke-linecap:square;stroke-miterlimit:10;}
	.st5{fill:none;stroke:#754C24;stroke-width:1.1813;stroke-miterlimit:10;}
	.st6{fill:#603813;}
</style>
<g>
	<g>
		<rect x="144.713" y="141.082" class="st0" width="9.601" height="5.201"/>
		<path class="st1" d="M171.539,110.21c0-12.647-9.862-21.754-22.028-21.754c-12.17,0-22.023,9.107-22.023,21.754
			c0,5.448,2.001,10.339,4.904,14.39c3.268,4.56,12.321,17.36,12.321,17.36h9.592c0,0,9.075-12.814,12.344-17.379
			C169.547,120.535,171.539,115.65,171.539,110.21z"/>
		<path class="st2" d="M166.117,110.21c0-12.647-7.435-21.754-16.606-21.754c-9.175,0-16.602,9.107-16.602,21.754
			c0,5.448,1.529,10.38,3.695,14.39c2.486,4.602,9.29,17.36,9.29,17.36h7.229c0,0,6.817-12.767,9.308-17.379
			C164.598,120.576,166.117,115.65,166.117,110.21z"/>
		<path class="st1" d="M157.899,110.21c0-12.647-3.755-21.754-8.388-21.754s-8.384,9.107-8.384,21.754
			c0,5.448,0.783,10.421,1.868,14.39c1.273,4.647,4.694,17.36,4.694,17.36h3.649c0,0,3.434-12.727,4.702-17.379
			C157.121,120.617,157.899,115.65,157.899,110.21z"/>
	</g>
	<g>
		<g>
			<path class="st3" d="M164.976,124.684c-4.125,1.642-9.615,2.546-15.462,2.546c-5.846,0-11.337-0.904-15.461-2.546
				c-0.713-0.284-1.756-0.781-2.354-1.093c0,0.07,0.599,0.878,0.764,1.109c0.469,0.228,0.819,0.377,1.348,0.587
				c4.199,1.672,9.777,2.593,15.703,2.593c5.927,0,11.503-0.921,15.703-2.593c0.528-0.21,0.88-0.36,1.349-0.588
				c0.289-0.408,0.764-1.108,0.764-1.108C166.731,123.904,165.689,124.399,164.976,124.684z"/>
		</g>
		<g>
			<g>
				<line class="st4" x1="165.384" y1="125.201" x2="153.429" y2="151.651"/>
				<line class="st5" x1="155.964" y1="127.296" x2="151.673" y2="151.348"/>
			</g>
			<g>
				<line class="st4" x1="133.644" y1="125.201" x2="145.6" y2="151.651"/>
				<line class="st5" x1="143.065" y1="127.296" x2="147.355" y2="151.348"/>
			</g>
		</g>
		<g>
			<path class="st3" d="M154.45,159.791c0,0.626-0.507,1.132-1.133,1.132h-7.533c-0.626,0-1.133-0.507-1.133-1.132v-7.533
				c0-0.626,0.507-1.133,1.133-1.133h7.533c0.626,0,1.133,0.507,1.133,1.133V159.791z"/>
			<path class="st6" d="M154.821,152.582c0,0.262-0.211,0.473-0.472,0.473h-9.669c-0.261,0-0.474-0.212-0.474-0.473v-0.984
				c0-0.261,0.213-0.473,0.474-0.473h9.669c0.261,0,0.472,0.212,0.472,0.473V152.582z"/>
		</g>
	</g>
</g>
</svg>
